<?xml version="1.0" encoding="UTF-8"?>
<svg version="1.1" xmlns="http://www.w3.org/2000/svg" width="490" height="490">
<path d="M0 0 C161.7 0 323.4 0 490 0 C490 161.7 490 323.4 490 490 C328.3 490 166.6 490 0 490 C0 328.3 0 166.6 0 0 Z " fill="#FEFEFE" transform="translate(0,0)"/>
<path d="M0 0 C0.71873795 -0.00524185 1.43747589 -0.0104837 2.17799377 -0.0158844 C3.69685577 -0.02230231 5.21576748 -0.0209705 6.73461914 -0.01245117 C9.05510311 -0.00394767 11.37311911 -0.03268925 13.69335938 -0.06445312 C15.17057218 -0.06606549 16.64778933 -0.06548694 18.125 -0.0625 C18.81677841 -0.07373398 19.50855682 -0.08496796 20.22129822 -0.09654236 C23.48999673 -0.04941846 25.36841083 0.2518219 28.07348633 2.1394043 C29.94152943 4.8947019 30.09637063 6.3326252 30.01953125 9.63671875 C30.00664062 10.61640625 29.99375 11.59609375 29.98046875 12.60546875 C29.94695312 13.62125 29.9134375 14.63703125 29.87890625 15.68359375 C29.86085938 16.71484375 29.8428125 17.74609375 29.82421875 18.80859375 C29.77713337 21.35120439 29.71138675 23.89192537 29.62890625 26.43359375 C30.6653125 26.54445313 31.70171875 26.6553125 32.76953125 26.76953125 C36.47131071 27.40647711 39.052492 28.37659332 42.37890625 30.05859375 C45.08129396 31.4802643 45.08129396 31.4802643 47.62890625 32.43359375 C50.90664129 31.68209352 50.90664129 31.68209352 52.62890625 28.43359375 C53.28890625 28.43359375 53.94890625 28.43359375 54.62890625 28.43359375 C54.95890625 27.44359375 55.28890625 26.45359375 55.62890625 25.43359375 C58.83178568 21.86379735 62.00848329 18.86350188 66.69140625 17.62109375 C72.17073141 19.13665177 75.51795267 23.09475226 79.06640625 27.37109375 C81.20758959 29.93006896 83.22243942 31.86578833 85.75390625 33.99609375 C88.72998 36.55585473 91.15611949 38.70253397 92.62890625 42.43359375 C92.5953742 45.18322164 92.10859966 46.87384801 90.30786133 48.97509766 C87.96827997 51.25706065 85.55374915 53.44396092 83.11328125 55.6171875 C81.46823318 57.15715541 79.97095226 58.62303482 78.62890625 60.43359375 C78.39850813 62.99376508 78.39850813 62.99376508 79.62890625 65.43359375 C80.02207031 66.50996094 80.41523438 67.58632812 80.8203125 68.6953125 C81.27277344 69.82582031 81.72523438 70.95632812 82.19140625 72.12109375 C84.62890625 78.2182963 84.62890625 78.2182963 84.62890625 80.43359375 C85.24411133 80.4178833 85.85931641 80.40217285 86.49316406 80.38598633 C89.28831746 80.32351449 92.0833238 80.28456507 94.87890625 80.24609375 C95.84699219 80.22095703 96.81507813 80.19582031 97.8125 80.16992188 C98.74707031 80.16025391 99.68164062 80.15058594 100.64453125 80.140625 C101.93278809 80.11705933 101.93278809 80.11705933 103.24707031 80.09301758 C106.32853829 80.53363339 107.5619974 81.07967129 109.62890625 83.43359375 C110.02280091 86.11399422 110.1668668 88.3797191 110.125 91.05859375 C110.12645523 91.80189941 110.12791046 92.54520508 110.12940979 93.31103516 C110.12775117 94.8812248 110.11619372 96.45143076 110.09545898 98.02148438 C110.06650757 100.42518144 110.07484791 102.82667244 110.08789062 105.23046875 C110.08165289 106.75652114 110.07326167 108.28256656 110.0625 109.80859375 C110.06543564 110.52740723 110.06837128 111.2462207 110.07139587 111.98681641 C110.01774782 114.8239655 109.93069191 116.94438138 108.42089844 119.3918457 C106.00582202 120.79581451 104.30998523 120.77488414 101.5234375 120.7265625 C100.54052734 120.71689453 99.55761719 120.70722656 98.54492188 120.69726562 C97.52076172 120.67212891 96.49660156 120.64699219 95.44140625 120.62109375 C93.88776367 120.60079102 93.88776367 120.60079102 92.30273438 120.58007812 C89.74426926 120.54470764 87.18684845 120.49534919 84.62890625 120.43359375 C84.43949463 121.17585205 84.25008301 121.91811035 84.05493164 122.68286133 C82.38639333 129.16358704 80.25746784 135.28249276 77.62890625 141.43359375 C78.61890625 141.76359375 79.60890625 142.09359375 80.62890625 142.43359375 C82.27734375 144.10546875 82.27734375 144.10546875 84.00390625 146.18359375 C86.13344495 148.72997832 88.11488111 150.85882175 90.62890625 153.05859375 C92.62890625 155.43359375 92.62890625 155.43359375 92.54541016 158.24243164 C90.9442325 163.81754969 86.55953007 167.35505009 82.53857422 171.34057617 C81.00584451 172.86916073 79.51106608 174.42916129 78.015625 175.99414062 C77.04248194 176.97476201 76.06728611 177.95335142 75.08984375 178.9296875 C74.21118652 179.81841553 73.3325293 180.70714355 72.42724609 181.62280273 C69.62890625 183.43359375 69.62890625 183.43359375 65.99707031 183.40112305 C62.72754174 182.4619275 61.45456006 181.95254111 59.27734375 179.45703125 C58.7359375 178.86921875 58.19453125 178.28140625 57.63671875 177.67578125 C57.09789062 177.05960938 56.5590625 176.4434375 56.00390625 175.80859375 C53.03066731 172.39688264 53.03066731 172.39688264 49.62890625 169.43359375 C47.04913827 169.20012156 47.04913827 169.20012156 44.62890625 170.43359375 C43.63632812 170.82675781 42.64375 171.21992188 41.62109375 171.625 C39.53764494 172.54140418 37.45431216 173.45807219 35.37109375 174.375 C32.62890625 175.43359375 32.62890625 175.43359375 29.62890625 175.43359375 C29.66032715 176.40184082 29.66032715 176.40184082 29.69238281 177.38964844 C29.7756483 180.32080443 29.82759831 183.25171152 29.87890625 186.18359375 C29.91242188 187.199375 29.9459375 188.21515625 29.98046875 189.26171875 C29.99980469 190.73125 29.99980469 190.73125 30.01953125 192.23046875 C30.05095215 193.58156738 30.05095215 193.58156738 30.08300781 194.95996094 C29.45839027 198.36244748 28.45382082 199.45385549 25.62890625 201.43359375 C22.28491211 201.91943359 22.28491211 201.91943359 18.34375 201.89453125 C17.29750206 201.89315659 17.29750206 201.89315659 16.2301178 201.89175415 C14.76003182 201.8857279 13.28995756 201.87001087 11.82006836 201.84521484 C9.5703408 201.80865768 7.32225951 201.80419597 5.07226562 201.8046875 C-5.92785163 201.72908849 -5.92785163 201.72908849 -9.37109375 199.43359375 C-10.35153339 196.49227484 -10.48730577 194.6085771 -10.46875 191.546875 C-10.46391602 190.14018555 -10.46391602 190.14018555 -10.45898438 188.70507812 C-10.44641602 187.24038086 -10.44641602 187.24038086 -10.43359375 185.74609375 C-10.42908203 184.75802734 -10.42457031 183.76996094 -10.41992188 182.75195312 C-10.40813678 180.31243901 -10.39168386 177.87304686 -10.37109375 175.43359375 C-10.97074951 175.31459717 -11.57040527 175.19560059 -12.18823242 175.07299805 C-17.18284813 174.03264258 -21.15218845 172.74795476 -25.546875 170.140625 C-27.92681344 169.21820775 -28.98166295 169.60718047 -31.37109375 170.43359375 C-33.92839188 172.9151468 -36.32436918 175.4637538 -38.68554688 178.12890625 C-39.18634766 178.66257812 -39.68714844 179.19625 -40.203125 179.74609375 C-40.64374268 180.23722656 -41.08436035 180.72835937 -41.53833008 181.234375 C-44.48764783 183.16418036 -46.87828195 183.380263 -50.37109375 183.43359375 C-53.07763672 181.65112305 -53.07763672 181.65112305 -55.61328125 179.0078125 C-56.53367188 178.06615234 -57.4540625 177.12449219 -58.40234375 176.15429688 C-59.35049466 175.14344883 -60.2984087 174.13237856 -61.24609375 173.12109375 C-62.21563171 172.11998266 -63.18697003 171.12061183 -64.16015625 170.12304688 C-72.19011315 161.80387542 -72.19011315 161.80387542 -72.80859375 157.12109375 C-72.37109375 153.43359375 -72.37109375 153.43359375 -69.68359375 150.80859375 C-68.58031333 150.01569246 -67.47614253 149.22402865 -66.37109375 148.43359375 C-63.65477026 145.84073951 -61.45539521 143.56004594 -59.37109375 140.43359375 C-59.76381593 136.28501944 -61.39469879 132.59113899 -62.93359375 128.74609375 C-65.37109375 122.6488912 -65.37109375 122.6488912 -65.37109375 120.43359375 C-66.05212158 120.45454102 -66.73314941 120.47548828 -67.43481445 120.49707031 C-70.51759097 120.58016827 -73.60013212 120.63223329 -76.68359375 120.68359375 C-77.75544922 120.71710938 -78.82730469 120.750625 -79.93164062 120.78515625 C-81.47368164 120.80449219 -81.47368164 120.80449219 -83.046875 120.82421875 C-84.46867065 120.85563965 -84.46867065 120.85563965 -85.91918945 120.88769531 C-88.37109375 120.43359375 -88.37109375 120.43359375 -90.17675781 118.86230469 C-91.81010444 115.54085491 -91.77684835 112.87952799 -91.8046875 109.18359375 C-91.80992935 108.4884668 -91.8151712 107.79333984 -91.8205719 107.07714844 C-91.82697904 105.61134168 -91.82567197 104.14548342 -91.81713867 102.6796875 C-91.80861992 100.44047388 -91.83741543 98.20380603 -91.86914062 95.96484375 C-91.87075266 94.53776118 -91.87017506 93.1106741 -91.8671875 91.68359375 C-91.86996704 89.74226563 -91.86996704 89.74226563 -91.87280273 87.76171875 C-91.37109375 84.43359375 -91.37109375 84.43359375 -89.6652832 82.00488281 C-86.90913468 80.11719824 -85.48272319 79.96588144 -82.16796875 80.04296875 C-80.6984375 80.06230469 -80.6984375 80.06230469 -79.19921875 80.08203125 C-78.1834375 80.11554688 -77.16765625 80.1490625 -76.12109375 80.18359375 C-75.08984375 80.20164062 -74.05859375 80.2196875 -72.99609375 80.23828125 C-70.45348311 80.28536663 -67.91276213 80.35111325 -65.37109375 80.43359375 C-65.17483398 79.82741211 -64.97857422 79.22123047 -64.77636719 78.59667969 C-64.5137207 77.79520508 -64.25107422 76.99373047 -63.98046875 76.16796875 C-63.72233398 75.37616211 -63.46419922 74.58435547 -63.19824219 73.76855469 C-62.45137544 71.66022128 -61.58509857 69.69883866 -60.62109375 67.68359375 C-59.21368477 64.0243304 -59.07730166 63.06045354 -60.37109375 59.43359375 C-62.32493841 57.2979961 -64.23864288 55.36950537 -66.37109375 53.43359375 C-72.00833117 48.31591738 -72.00833117 48.31591738 -73.4375 44.83984375 C-73.30509234 40.04201312 -69.4833833 36.81089013 -66.37109375 33.43359375 C-64.44147489 31.63816901 -62.45265543 30.06264202 -60.37109375 28.43359375 C-57.77641956 25.90220429 -55.30826217 23.36109577 -52.93359375 20.62109375 C-50.37109375 18.43359375 -50.37109375 18.43359375 -47.49609375 18.0703125 C-43.73606823 18.50741547 -42.5171421 19.47117904 -39.80859375 22.05859375 C-39.04546875 22.78304687 -38.28234375 23.5075 -37.49609375 24.25390625 C-34.94222478 26.87349979 -32.61170716 29.54247967 -30.37109375 32.43359375 C-25.28838172 30.9225172 -20.6296036 28.73987924 -15.859375 26.45703125 C-13.37109375 25.43359375 -13.37109375 25.43359375 -10.37109375 25.43359375 C-10.3868042 24.78285889 -10.40251465 24.13212402 -10.41870117 23.46166992 C-10.48104024 20.51489951 -10.52008059 17.56826777 -10.55859375 14.62109375 C-10.58373047 13.59693359 -10.60886719 12.57277344 -10.63476562 11.51757812 C-10.64443359 10.53466797 -10.65410156 9.55175781 -10.6640625 8.5390625 C-10.67977295 7.63309326 -10.6954834 6.72712402 -10.71166992 5.79370117 C-10.37109375 3.43359375 -10.37109375 3.43359375 -9.31347656 1.64160156 C-6.35649414 -0.19740661 -3.37833236 -0.0142945 0 0 Z " fill="#D22F2E" transform="translate(235.37109375,79.56640625)"/>
<path d="M0 0 C0.65106216 1.31211708 0.65106216 1.31211708 1.3152771 2.65074158 C5.39948408 10.87987806 9.48996837 19.10586683 13.58667564 27.3287878 C15.69280649 31.55672878 17.79668264 35.78576097 19.89550781 40.01733398 C21.91973531 44.09830121 23.94975162 48.1763392 25.98387527 52.25238228 C26.76026449 53.81071882 27.53453494 55.37011277 28.30668259 56.93055534 C29.38561022 59.11007597 30.47189954 61.28577046 31.56005859 63.46069336 C31.88014389 64.11164978 32.20022919 64.7626062 32.53001404 65.43328857 C34.10077122 68.82935865 34.10077122 68.82935865 37 71 C37.33 70.01 37.66 69.02 38 68 C38.99 68 39.98 68 41 68 C41.67154933 69.28913487 42.33708859 70.58140204 43 71.875 C43.37125 72.59429687 43.7425 73.31359375 44.125 74.0546875 C45 76 45 76 45 78 C45.66 78 46.32 78 47 78 C49.37385672 82.20289386 51.73550302 86.3911005 53.8125 90.75 C56.28020398 95.80828119 59.37525633 100.4990346 62.390625 105.2421875 C64 108 64 108 64 110 C7.9 110 -48.2 110 -106 110 C-106 88.61456237 -106 88.61456237 -105.25 78.8125 C-105.16347168 77.67756104 -105.07694336 76.54262207 -104.98779297 75.37329102 C-104.34536913 67.6722487 -103.40732329 60.05803867 -102.125 52.4375 C-101.97579102 51.52911377 -101.82658203 50.62072754 -101.67285156 49.68481445 C-98.8253698 34.02512055 -98.8253698 34.02512055 -93.296875 30.0625 C-92.20890625 29.711875 -91.1209375 29.36125 -90 29 C-89.33806641 28.76152344 -88.67613281 28.52304687 -87.99414062 28.27734375 C-85.75847833 27.47500507 -83.50945863 26.73247097 -81.25 26 C-80.45231201 25.73727295 -79.65462402 25.4745459 -78.83276367 25.20385742 C-73.99499889 23.61916577 -69.14520497 22.09669516 -64.23828125 20.73828125 C-61.81783547 19.97897418 -61.81783547 19.97897418 -58.86425781 18.62524414 C-54.95624135 16.93965571 -50.9766511 15.57985631 -46.93359375 14.2578125 C-46.1776442 14.00756317 -45.42169464 13.75731384 -44.64283752 13.4994812 C-42.24200395 12.70508921 -39.83986945 11.91473386 -37.4375 11.125 C-34.28965645 10.08807088 -31.14265668 9.04862053 -27.99609375 8.0078125 C-27.23138763 7.75598206 -26.46668152 7.50415161 -25.67880249 7.24468994 C-19.6977443 5.263728 -13.79223474 3.11809931 -7.90258789 0.87841797 C-5.05969616 0.01806601 -2.93910653 -0.06959418 0 0 Z " fill="#343530" transform="translate(168,300)"/>
<path d="M0 0 C5.40996145 0.53579068 10.02294089 1.49922493 15.1640625 3.37109375 C15.82588028 3.60887039 16.48769806 3.84664703 17.16957092 4.09162903 C18.58731343 4.60168154 20.0037778 5.11529873 21.41903687 5.63220215 C25.2092525 7.01583928 29.00935914 8.37183508 32.80859375 9.73046875 C33.96621971 10.14548141 33.96621971 10.14548141 35.14723206 10.56887817 C42.62423322 13.2414545 50.14791612 15.76055648 57.6875 18.25 C60.1250122 19.06116126 62.56251245 19.87235843 65 20.68359375 C69.61851428 22.21734455 74.24436425 23.72595911 78.875 25.22265625 C80.97939808 25.91857145 83.08357748 26.61514839 85.1875 27.3125 C86.14422607 27.61381836 87.10095215 27.91513672 88.08666992 28.22558594 C94.4469899 30.36115925 94.4469899 30.36115925 96.98828125 33.296875 C105.989597 57.34672247 106 84.82295905 106 110 C49.9 110 -6.2 110 -64 110 C-62.97278673 105.89114693 -61.57483427 103.48397829 -59.3125 99.9375 C-56.72608905 95.83123336 -54.23745336 91.71417003 -51.9375 87.4375 C-49.74884016 83.3719894 -47.53022101 79.32756958 -45.25 75.3125 C-44.67765625 74.29800781 -44.1053125 73.28351563 -43.515625 72.23828125 C-43.01546875 71.49964844 -42.5153125 70.76101563 -42 70 C-41.34 70 -40.68 70 -40 70 C-40 69.34 -40 68.68 -40 68 C-38.515 68.495 -38.515 68.495 -37 69 C-37 69.66 -37 70.32 -37 71 C-33.97247883 68.39636812 -32.51805969 65.39784435 -30.75366211 61.84790039 C-30.44432236 61.22965897 -30.1349826 60.61141754 -29.81626892 59.97444153 C-28.79757755 57.93497312 -27.78745074 55.89138806 -26.77734375 53.84765625 C-26.06949984 52.42636906 -25.36112311 51.00534711 -24.65223694 49.58457947 C-22.78837388 45.84540954 -20.93174126 42.10269457 -19.07659912 38.35919189 C-17.1901518 34.55567016 -15.29695828 30.75551039 -13.40429688 26.95507812 C-10.07588523 20.26954901 -6.75340613 13.5811009 -3.43516541 6.89051819 C-2.29382716 4.59178736 -1.14946167 2.29467567 0 0 Z " fill="#343530" transform="translate(322,300)"/>
<path d="M0 0 C0.43404144 0.87474472 0.86808289 1.74948944 1.3152771 2.65074158 C5.39948408 10.87987806 9.48996837 19.10586683 13.58667564 27.3287878 C15.69280649 31.55672878 17.79668264 35.78576097 19.89550781 40.01733398 C21.91973531 44.09830121 23.94975162 48.1763392 25.98387527 52.25238228 C26.76026449 53.81071882 27.53453494 55.37011277 28.30668259 56.93055534 C29.38561022 59.11007597 30.47189954 61.28577046 31.56005859 63.46069336 C31.88014389 64.11164978 32.20022919 64.7626062 32.53001404 65.43328857 C34.10077122 68.82935865 34.10077122 68.82935865 37 71 C37.495 69.515 37.495 69.515 38 68 C38.99 68 39.98 68 41 68 C41.67154933 69.28913487 42.33708859 70.58140204 43 71.875 C43.37125 72.59429687 43.7425 73.31359375 44.125 74.0546875 C45 76 45 76 45 78 C45.66 78 46.32 78 47 78 C49.37385672 82.20289386 51.73550302 86.3911005 53.8125 90.75 C56.28020398 95.80828119 59.37525633 100.4990346 62.390625 105.2421875 C64 108 64 108 64 110 C55.77685642 110.27869529 47.55569966 110.49155952 39.3289938 110.62174606 C35.50823574 110.68425084 31.69071828 110.76891003 27.87182617 110.90527344 C24.18216076 111.03618981 20.49559832 111.10750383 16.80378914 111.13852692 C15.39957849 111.16061343 13.9955286 111.20375708 12.59264946 111.26876068 C8.15193852 111.46623974 4.22754877 111.43702745 0 110 C-3.30671723 106.37200271 -5.04739032 102.45865841 -7 98 C-8.10687849 96.26617279 -9.24634004 94.55204346 -10.4375 92.875 C-13 89.22193211 -13 89.22193211 -13 87 C-13.66 87 -14.32 87 -15 87 C-15.391875 86.154375 -15.78375 85.30875 -16.1875 84.4375 C-17.60273651 81.75343075 -18.89192205 79.82389136 -20.75 77.5 C-22.53409965 75.02178255 -22.98646629 74.21202819 -23.1875 71.0625 C-21.83319829 67.56982717 -20.02648881 65.14205381 -17.69921875 62.234375 C-14.77172997 58.38489551 -12.4167413 54.18216225 -10 50 C-10.825 49.896875 -11.65 49.79375 -12.5 49.6875 C-15.77610888 49.04397861 -18.6065109 47.99069762 -21.69921875 46.765625 C-26.01610584 45.3291057 -30.51455692 44.70085048 -35 44 C-34.45707868 33.2558729 -33.4598439 22.65827777 -32 12 C-33.65 12 -35.3 12 -37 12 C-32.31581917 8.87721278 -26.95299604 7.39851058 -21.65820312 5.57666016 C-19.63616143 4.87885182 -17.61888117 4.16836006 -15.6015625 3.45703125 C-14.31016706 3.00963301 -13.01850853 2.56299331 -11.7265625 2.1171875 C-9.97206787 1.50786377 -9.97206787 1.50786377 -8.18212891 0.88623047 C-5.22726257 0.06329317 -3.0294231 -0.07292021 0 0 Z " fill="#595A58" transform="translate(168,300)"/>
<path d="M0 0 C6.94975422 0.53713915 12.92690404 2.51265708 19.4375 4.9375 C20.44232422 5.29779297 21.44714844 5.65808594 22.48242188 6.02929688 C29.87096273 8.74192547 29.87096273 8.74192547 31 11 C31.06950541 12.54023996 31.08452357 14.08334988 31.0625 15.625 C31.05347656 16.44226563 31.04445313 17.25953125 31.03515625 18.1015625 C31.02355469 18.72804688 31.01195312 19.35453125 31 20 C31.66 20 32.32 20 33 20 C33.99 31.88 33.99 31.88 35 44 C31.638125 44.825 28.27625 45.65 24.8125 46.5 C23.76167236 46.76103516 22.71084473 47.02207031 21.62817383 47.29101562 C20.78794678 47.49404297 19.94771973 47.69707031 19.08203125 47.90625 C18.22843018 48.11572266 17.3748291 48.32519531 16.49536133 48.54101562 C13.94053693 49.01093734 11.59155241 49.08117627 9 49 C9 49.99 9 50.98 9 52 C9.66 52 10.32 52 11 52 C12.76396693 54.34202365 14.39562116 56.67717629 16 59.125 C16.45117188 59.79015625 16.90234375 60.4553125 17.3671875 61.140625 C19.87313072 64.92178193 22.20215961 68.46851592 23 73 C21.875 75.67578125 21.875 75.67578125 20 78.3125 C19.34773438 79.25738281 18.69546875 80.20226562 18.0234375 81.17578125 C17.35570312 82.10777344 16.68796875 83.03976562 16 84 C14.86854524 85.66229146 13.74291866 87.32857527 12.625 89 C12.14289063 89.70125 11.66078125 90.4025 11.1640625 91.125 C9.83832586 93.09882005 9.83832586 93.09882005 9 96 C8.34 96 7.68 96 7 96 C6.79375 96.825 6.5875 97.65 6.375 98.5 C4.55947823 103.12132813 2.97685477 106.86873086 -1 110 C-5.77273114 111.12469962 -10.49750364 110.93353302 -15.3671875 110.78125 C-16.77105475 110.76631331 -18.17496394 110.75493301 -19.57888794 110.74694824 C-23.25924519 110.71652295 -26.93704261 110.63805494 -30.61639404 110.54931641 C-34.37672292 110.46721005 -38.13746901 110.43088466 -41.8984375 110.390625 C-49.26678722 110.30504105 -56.63303384 110.16866317 -64 110 C-63.14391597 106.0779895 -61.47873124 103.33332536 -59.3125 99.9375 C-56.72608905 95.83123336 -54.23745336 91.71417003 -51.9375 87.4375 C-49.74884016 83.3719894 -47.53022101 79.32756958 -45.25 75.3125 C-44.67765625 74.29800781 -44.1053125 73.28351563 -43.515625 72.23828125 C-43.01546875 71.49964844 -42.5153125 70.76101563 -42 70 C-41.34 70 -40.68 70 -40 70 C-40 69.34 -40 68.68 -40 68 C-38.515 68.495 -38.515 68.495 -37 69 C-37 69.66 -37 70.32 -37 71 C-33.97247883 68.39636812 -32.51805969 65.39784435 -30.75366211 61.84790039 C-30.44432236 61.22965897 -30.1349826 60.61141754 -29.81626892 59.97444153 C-28.79757755 57.93497312 -27.78745074 55.89138806 -26.77734375 53.84765625 C-26.06949984 52.42636906 -25.36112311 51.00534711 -24.65223694 49.58457947 C-22.78837388 45.84540954 -20.93174126 42.10269457 -19.07659912 38.35919189 C-17.1901518 34.55567016 -15.29695828 30.75551039 -13.40429688 26.95507812 C-10.07588523 20.26954901 -6.75340613 13.5811009 -3.43516541 6.89051819 C-2.29382716 4.59178736 -1.14946167 2.29467567 0 0 Z " fill="#595958" transform="translate(322,300)"/>
<path d="M0 0 C3.7585638 1.56906848 6.17847043 3.90681746 9.05981445 6.75341797 C9.54968338 7.23496338 10.03955231 7.71650879 10.54426575 8.21264648 C12.15605965 9.80041251 13.76015404 11.39567424 15.36328125 12.9921875 C16.48089639 14.10083539 17.59858853 15.20940566 18.71635437 16.31790161 C21.05429586 18.63937342 23.38782543 20.96518542 25.71899414 23.29345703 C28.71131899 26.28038039 31.71948906 29.25078862 34.73180866 32.21752739 C37.04357275 34.49960955 39.34406176 36.79280313 41.64153099 39.08926773 C42.74628925 40.18981104 43.85518249 41.2862193 44.96819496 42.37841415 C46.51988101 43.90335205 48.0550962 45.44317558 49.5871582 46.98779297 C50.46555862 47.86112274 51.34395905 48.73445251 52.24897766 49.63424683 C54 52 54 52 53.84976196 54.21327209 C52.90209619 56.20585468 51.87596309 57.53811586 50.34765625 59.12890625 C49.81849609 59.68900391 49.28933594 60.24910156 48.74414062 60.82617188 C48.18919922 61.39916016 47.63425781 61.97214844 47.0625 62.5625 C45.96826321 63.70792916 44.87574912 64.85500708 43.78515625 66.00390625 C43.29926025 66.50736572 42.81336426 67.0108252 42.31274414 67.52954102 C40.782038 69.17492449 40.782038 69.17492449 39 72 C38.34 72 37.68 72 37 72 C35.24118433 75.28312259 34 78.23856995 34 82 C34.66 82 35.32 82 36 82 C38.70559442 86.05839164 38.52702404 89.30697641 38 94 C36.96610608 98.74030609 35.73670951 103.41409928 34.48730469 108.10107422 C33.47916575 112.02958357 32.72862897 116.01171511 32 120 C31.72414062 119.42507813 31.44828125 118.85015625 31.1640625 118.2578125 C29.64297619 115.30751757 27.83650419 112.58192838 26.0234375 109.8046875 C25 108 25 108 25 106 C24.34 106 23.68 106 23 106 C22.32845067 104.71086513 21.66291141 103.41859796 21 102.125 C20.62875 101.40570313 20.2575 100.68640625 19.875 99.9453125 C19 98 19 98 19 96 C15.88214887 96.64644661 15.88214887 96.64644661 15 99 C11.48608537 97.82869512 11.08605255 96.7620206 9.46905518 93.58242798 C9.16191589 92.95331512 8.85477661 92.32420227 8.53833008 91.67602539 C8.2062706 91.01584915 7.87421112 90.35567291 7.53208923 89.67549133 C6.43478987 87.48761652 5.3520296 85.29288708 4.26953125 83.09765625 C3.51228828 81.57892189 2.75427745 80.06057016 1.99552917 78.54258728 C0.40663992 75.35863705 -1.17556861 72.17148686 -2.75268555 68.98168945 C-4.77761368 64.8865453 -6.81471069 60.79761286 -8.85628796 56.71074772 C-10.42182085 53.57525966 -11.98299489 50.43761906 -13.54262733 47.29919243 C-14.2925574 45.7904336 -15.04335932 44.28210781 -15.79503441 42.77421761 C-16.84299434 40.66928546 -17.88556639 38.56177617 -18.92651367 36.45336914 C-19.39633163 35.51273621 -19.39633163 35.51273621 -19.87564087 34.55310059 C-22 30.22917 -22 30.22917 -22 28 C-22.66 27.67 -23.32 27.34 -24 27 C-23.34 27 -22.68 27 -22 27 C-21.75378906 26.43410156 -21.50757813 25.86820312 -21.25390625 25.28515625 C-19.78463776 22.60751742 -18.02247565 20.66956388 -15.9375 18.4375 C-11.72217553 13.84702529 -7.75624353 9.1029902 -3.84765625 4.25 C-2 2 -2 2 0 0 Z " fill="#9EA8D9" transform="translate(190,272)"/>
<path d="M0 0 C4.52319291 1.56449261 6.68873491 5.12605438 9.4375 8.8125 C12.73216551 13.18558585 16.05523376 17.17640405 20 21 C21.34736973 22.65533995 22.68334336 24.32012773 24 26 C24.99 26.99 24.99 26.99 26 28 C25.34 28 24.68 28 24 28 C23.89883881 28.52600296 23.79767761 29.05200592 23.69345093 29.59394836 C22.77936294 32.76553962 21.37044985 35.53837481 19.90478516 38.49682617 C19.58759018 39.13953964 19.2703952 39.78225311 18.94358826 40.44444275 C17.89643031 42.56280582 16.84320467 44.67807335 15.7890625 46.79296875 C15.05774905 48.26456197 14.32649788 49.73618614 13.5953064 51.20783997 C12.06325947 54.28840915 10.52771625 57.36720846 8.99023438 60.44506836 C7.01797514 64.39498637 5.0587384 68.35121257 3.10257912 72.30912304 C1.59775878 75.34844762 0.08400212 78.38325446 -1.43230057 81.4168644 C-2.1588237 82.87412576 -2.88203872 84.33304115 -3.60190964 85.79360008 C-4.6072458 87.83101993 -5.62493297 89.86178425 -6.64599609 91.89135742 C-7.22255951 93.0495549 -7.79912292 94.20775238 -8.39315796 95.40104675 C-10 98 -10 98 -13 99 C-13.99 98.01 -14.98 97.02 -16 96 C-16 96.66 -16 97.32 -16 98 C-16.66 98 -17.32 98 -18 98 C-18.20625 98.78375 -18.4125 99.5675 -18.625 100.375 C-21.17686294 107.10263866 -24.74191664 113.06058836 -30 118 C-31.79407879 109.61634879 -33.25331491 101.31514728 -33.8125 92.75 C-33.865271 92.03593994 -33.91804199 91.32187988 -33.97241211 90.58618164 C-34.17750445 86.77073322 -33.98016637 84.27725209 -32 81 C-32.08619337 77.63845843 -32.72202501 76.30403514 -35 73.8125 C-35.4434375 73.40515625 -35.886875 72.9978125 -36.34375 72.578125 C-39.3594706 69.70465537 -42.07069014 66.54565307 -44.8359375 63.43359375 C-46.11605632 61.99403775 -47.40832247 60.56488714 -48.7265625 59.16015625 C-52 55.56668994 -52 55.56668994 -52 52.6875 C-51 51 -51 51 -48 50 C-47.31513275 48.67592331 -46.65129797 47.34090759 -46 46 C-44 43.75 -44 43.75 -42 42 C-41.34 42 -40.68 42 -40 42 C-39.74029419 41.41563171 -39.48058838 40.83126343 -39.2130127 40.22918701 C-37.91327506 37.84062318 -36.50904455 36.25524602 -34.59179688 34.33300781 C-33.897677 33.63258362 -33.20355713 32.93215942 -32.48840332 32.21051025 C-31.36492493 31.09310455 -31.36492493 31.09310455 -30.21875 29.953125 C-29.44946167 29.18192322 -28.68017334 28.41072144 -27.88757324 27.6161499 C-26.26263173 25.98984871 -24.63516701 24.36606524 -23.00537109 22.74462891 C-20.50254825 20.25253732 -18.01059437 17.74993408 -15.51953125 15.24609375 C-13.94074532 13.66862888 -12.36133939 12.09178423 -10.78125 10.515625 C-9.65777161 9.38607391 -9.65777161 9.38607391 -8.51159668 8.23370361 C-7.81747681 7.54588806 -7.12335693 6.85807251 -6.40820312 6.14941406 C-5.79690552 5.53970764 -5.18560791 4.93000122 -4.55578613 4.30181885 C-3 3 -3 3 -1 3 C-0.67 2.01 -0.34 1.02 0 0 Z " fill="#9EA8D9" transform="translate(298,272)"/>
<path d="M0 0 C1.81646496 1.06287747 3.6124579 2.16241356 5.375 3.3125 C6.48875 4.01375 7.6025 4.715 8.75 5.4375 C15.2039885 12.50615407 18.76582137 21.5083032 18.5859375 31.078125 C17.68246601 40.64823037 13.27758065 48.40991935 6.5625 55.125 C-2.34341329 61.23690128 -11.50119998 63.75618735 -22.21875 61.8515625 C-31.81830299 59.33316125 -38.52716472 53.75861763 -43.625 45.3125 C-47.95014655 37.36067777 -49.02131401 29.5450539 -47.03515625 20.6796875 C-44.26613671 12.53851483 -38.30143203 5.20010754 -30.875 0.8125 C-29.8025 0.3175 -28.73 -0.1775 -27.625 -0.6875 C-26.88894531 -1.038125 -26.15289062 -1.38875 -25.39453125 -1.75 C-17.18919402 -4.52754716 -7.70445942 -3.75098212 0 0 Z " fill="#FDFCFC" transform="translate(259.625,150.6875)"/>
<path d="M0 0 C0.66 0 1.32 0 2 0 C3.0119907 1.65941333 4.00851296 3.32825504 5 5 C6.87708082 7.4038054 8.87393761 9.69902408 10.875 12 C11.65037109 12.90492188 11.65037109 12.90492188 12.44140625 13.828125 C14.8233249 16.58803074 17.22533084 19.2228341 19.8203125 21.7890625 C22.34359675 24.34852286 23 25.4185973 23 29 C22.01 31.31 21.02 33.62 20 36 C8.45 35.67 -3.1 35.34 -15 35 C-15.33 35.99 -15.66 36.98 -16 38 C-16.66 35.36 -17.32 32.72 -18 30 C-18.66 30 -19.32 30 -20 30 C-20.75 27.8125 -20.75 27.8125 -21 25 C-19.1875 22.1875 -19.1875 22.1875 -17 20 C-16.34 20 -15.68 20 -15 20 C-14.73832031 19.40960938 -14.47664062 18.81921875 -14.20703125 18.2109375 C-12.9360512 15.88286401 -11.60869648 14.43970001 -9.6875 12.625 C-3.77280087 7.04029722 -3.77280087 7.04029722 0 0 Z " fill="#E6E7E8" transform="translate(244,324)"/>
<path d="M0 0 C0.99 0.33 1.98 0.66 3 1 C3 1.66 3 2.32 3 3 C3.66 3 4.32 3 5 3 C7.70559442 7.05839164 7.52702404 10.30697641 7 15 C5.96610608 19.74030609 4.73670951 24.41409928 3.48730469 29.10107422 C2.47916575 33.02958357 1.72862897 37.01171511 1 41 C0.58621094 40.13761719 0.58621094 40.13761719 0.1640625 39.2578125 C-1.35702381 36.30751757 -3.16349581 33.58192838 -4.9765625 30.8046875 C-6 29 -6 29 -6 27 C-6.66 27 -7.32 27 -8 27 C-8.67154933 25.71086513 -9.33708859 24.41859796 -10 23.125 C-10.37125 22.40570313 -10.7425 21.68640625 -11.125 20.9453125 C-12 19 -12 19 -12 17 C-12.66 17 -13.32 17 -14 17 C-14 16.34 -14 15.68 -14 15 C-13.195625 14.7525 -12.39125 14.505 -11.5625 14.25 C-10.716875 13.8375 -9.87125 13.425 -9 13 C-8.85433594 12.40058594 -8.70867187 11.80117188 -8.55859375 11.18359375 C-7.83427125 8.35215124 -6.46264324 6.95612468 -4.5 4.8125 C-3.8709375 4.11769531 -3.241875 3.42289062 -2.59375 2.70703125 C-1.74091381 1.79357681 -0.88366526 0.88366526 0 0 Z " fill="#939AC4" transform="translate(221,351)"/>
<path d="M0 0 C2.475 0.99 2.475 0.99 5 2 C5 2.66 5 3.32 5 4 C5.66 4 6.32 4 7 4 C7 4.66 7 5.32 7 6 C7.66 6 8.32 6 9 6 C9 6.66 9 7.32 9 8 C9.66 8 10.32 8 11 8 C11 8.99 11 9.98 11 11 C11.66 11 12.32 11 13 11 C14.38232443 12.62626404 15.71937515 14.2925002 17 16 C16.34 16 15.68 16 15 16 C15 16.66 15 17.32 15 18 C14.34 18 13.68 18 13 18 C12.79375 18.78375 12.5875 19.5675 12.375 20.375 C9.82313706 27.10263866 6.25808336 33.06058836 1 38 C-0.78787749 29.64532721 -2.26225264 21.34325298 -2.875 12.8125 C-2.9361499 12.10681885 -2.9972998 11.4011377 -3.06030273 10.67407227 C-3.32400181 6.19118806 -2.69620396 3.59726694 0 0 Z " fill="#929AC3" transform="translate(267,352)"/>
<path d="M0 0 C1.32 0 2.64 0 4 0 C4.12375 0.639375 4.2475 1.27875 4.375 1.9375 C4.58125 2.618125 4.7875 3.29875 5 4 C5.66 4.33 6.32 4.66 7 5 C7 4.01 7 3.02 7 2 C8.98 2 10.96 2 13 2 C13 2.66 13 3.32 13 4 C14.4317616 4.69937202 15.87067032 5.38412718 17.3125 6.0625 C18.11300781 6.44535156 18.91351563 6.82820312 19.73828125 7.22265625 C22.12028753 8.29735514 22.12028753 8.29735514 25 7 C25 6.34 25 5.68 25 5 C25.99 5 26.98 5 28 5 C28 5.66 28 6.32 28 7 C28.66 7.33 29.32 7.66 30 8 C29.01 8.66 28.02 9.32 27 10 C27.495 10.99 27.495 10.99 28 12 C18.88983827 9.46139762 18.88983827 9.46139762 14.625 7.25 C12.1786573 5.79488021 12.1786573 5.79488021 10.0090332 6.25390625 C6.09677942 7.70679817 3.41428921 11.61527563 0.68554688 14.6953125 C-2.97236759 18.59332174 -5.4481324 19.77708938 -11 20 C-11.33 19.34 -11.66 18.68 -12 18 C-8.04 17.505 -8.04 17.505 -4 17 C-3.8453125 15.02 -3.8453125 15.02 -3.6875 13 C-3.17694872 8.26238447 -1.83363235 4.384773 0 0 Z " fill="#C93638" transform="translate(196,243)"/>
<path d="M0 0 C-2.90600261 1.25664978 -4.79604584 2 -8 2 C-7.97905273 2.64549805 -7.95810547 3.29099609 -7.93652344 3.95605469 C-7.85325795 6.88721068 -7.80130794 9.81811777 -7.75 12.75 C-7.69972656 14.27367187 -7.69972656 14.27367187 -7.6484375 15.828125 C-7.63554687 16.8078125 -7.62265625 17.7875 -7.609375 18.796875 C-7.58842773 19.69760742 -7.56748047 20.59833984 -7.54589844 21.52636719 C-8.17051598 24.92885373 -9.17508543 26.02026174 -12 28 C-15.34399414 28.48583984 -15.34399414 28.48583984 -19.28515625 28.4609375 C-20.33140419 28.45956284 -20.33140419 28.45956284 -21.39878845 28.4581604 C-22.86887443 28.45213415 -24.33894869 28.43641712 -25.80883789 28.41162109 C-28.05856545 28.37506393 -30.30664674 28.37060222 -32.55664062 28.37109375 C-43.55675788 28.29549474 -43.55675788 28.29549474 -47 26 C-47.98043964 23.05868109 -48.11621202 21.17498335 -48.09765625 18.11328125 C-48.09443359 17.17548828 -48.09121094 16.23769531 -48.08789062 15.27148438 C-48.07532227 13.80678711 -48.07532227 13.80678711 -48.0625 12.3125 C-48.05798828 11.32443359 -48.05347656 10.33636719 -48.04882812 9.31835938 C-48.03704303 6.87884526 -48.02059011 4.43945311 -48 2 C-47.67 2 -47.34 2 -47 2 C-46.95101562 3.22976563 -46.90203125 4.45953125 -46.8515625 5.7265625 C-46.77648971 7.35939566 -46.70094385 8.99220712 -46.625 10.625 C-46.5940625 11.43324219 -46.563125 12.24148438 -46.53125 13.07421875 C-46.49257812 13.86699219 -46.45390625 14.65976562 -46.4140625 15.4765625 C-46.3826416 16.19924316 -46.3512207 16.92192383 -46.31884766 17.66650391 C-45.9814242 20.67200161 -45.9814242 20.67200161 -44 26 C-33.11 26 -22.22 26 -11 26 C-10.67 17.75 -10.34 9.5 -10 1 C-3.25 -1.25 -3.25 -1.25 0 0 Z " fill="#B9484A" transform="translate(273,253)"/>
<path d="M0 0 C2.55729813 2.48155305 4.95327543 5.03016005 7.31445312 7.6953125 C9.94588286 10.49946157 11.76412713 11.90979747 15.421875 13.30859375 C20.77687893 12.84675389 22.95629651 9.92682007 26.4375 6.0625 C27.07365234 5.39025391 27.70980469 4.71800781 28.36523438 4.02539062 C29.9297074 2.36681395 31.47255121 0.69261273 33 -1 C33.495 0.98 33.495 0.98 34 3 C33.48050781 3.44730469 32.96101563 3.89460937 32.42578125 4.35546875 C31.72839844 4.96003906 31.03101563 5.56460938 30.3125 6.1875 C29.20455078 7.13882812 29.20455078 7.13882812 28.07421875 8.109375 C25.82879349 10.06036843 25.82879349 10.06036843 23.625 12.9375 C19.67196076 16.04345941 15.84863047 15.42366674 11 15 C10.56300781 14.02546875 10.56300781 14.02546875 10.1171875 13.03125 C9.74851562 12.3609375 9.37984375 11.690625 9 11 C7.67203709 10.64587656 6.33783393 10.31478446 5 10 C4.360625 9.319375 3.72125 8.63875 3.0625 7.9375 C1.17453208 5.74563974 1.17453208 5.74563974 -1.4375 5.875 C-2.7059375 5.936875 -2.7059375 5.936875 -4 6 C-4.78375 5.649375 -5.5675 5.29875 -6.375 4.9375 C-9.85477749 3.69472232 -12.42526072 4.29907073 -16 5 C-13.52873606 3.35249071 -11.2390557 2.06276295 -8.5625 0.8125 C-7.80066406 0.44769531 -7.03882813 0.08289063 -6.25390625 -0.29296875 C-3.60907382 -1.12263022 -2.58384408 -0.9054629 0 0 Z " fill="#F9E7E2" transform="translate(286,249)"/>
<path d="M0 0 C6.05456301 0.69627475 10.12359277 5.8807804 13.8125 10.44921875 C14.96594559 12.05159061 16.05386844 13.70084871 17.125 15.359375 C15.203125 15.01953125 15.203125 15.01953125 13.125 14.359375 C11.875 11.796875 11.875 11.796875 11.125 9.359375 C10.361875 9.441875 9.59875 9.524375 8.8125 9.609375 C6.125 9.359375 6.125 9.359375 4.3125 7.484375 C3.125 5.359375 3.125 5.359375 3.125 3.359375 C0.37896533 2.85553165 0.37896533 2.85553165 -2.875 3.359375 C-4.65542556 4.78873073 -6.08952455 6.3181777 -7.578125 8.046875 C-8.00609375 8.48 -8.4340625 8.913125 -8.875 9.359375 C-9.535 9.359375 -10.195 9.359375 -10.875 9.359375 C-11.12121094 9.93816406 -11.36742187 10.51695313 -11.62109375 11.11328125 C-13.49647889 14.47261601 -16.27294909 16.69241007 -19.09765625 19.26171875 C-21.16525909 21.70194451 -21.65257695 23.1898465 -21.875 26.359375 C-20.29542918 30.65736798 -20.29542918 30.65736798 -16.875 33.359375 C-16.875 34.019375 -16.875 34.679375 -16.875 35.359375 C-15.885 35.689375 -14.895 36.019375 -13.875 36.359375 C-14.205 37.349375 -14.535 38.339375 -14.875 39.359375 C-16.53295529 37.80974347 -18.17598044 36.24412731 -19.8125 34.671875 C-20.72902344 33.80175781 -21.64554688 32.93164062 -22.58984375 32.03515625 C-24.96178296 29.25775735 -25.88658132 27.99011802 -25.875 24.359375 C-22.80711392 18.63526807 -17.92489827 14.3114693 -12.875 10.359375 C-10.28032581 7.82798554 -7.81216842 5.28687702 -5.4375 2.546875 C-2.875 0.359375 -2.875 0.359375 0 0 Z " fill="#BC373B" transform="translate(187.875,97.640625)"/>
<path d="M0 0 C0.66 0.33 1.32 0.66 2 1 C1.42587628 8.32579173 -3.14860671 12.00880002 -8.09033203 16.90698242 C-9.62306174 18.43556698 -11.11784017 19.99556754 -12.61328125 21.56054688 C-13.58642431 22.54116826 -14.56162014 23.51975767 -15.5390625 24.49609375 C-16.41771973 25.38482178 -17.29637695 26.2735498 -18.20166016 27.18920898 C-21 29 -21 29 -24.84130859 28.78149414 C-25.88367676 28.52360107 -26.92604492 28.26570801 -28 28 C-28 27.67 -28 27.34 -28 27 C-24.04 26.505 -24.04 26.505 -20 26 C-20 25.01 -20 24.02 -20 23 C-18.68 22.67 -17.36 22.34 -16 22 C-16.23589844 21.42765625 -16.47179687 20.8553125 -16.71484375 20.265625 C-17 18 -17 18 -15.56640625 15.859375 C-14.57447266 14.81523437 -14.57447266 14.81523437 -13.5625 13.75 C-12.90378906 13.04359375 -12.24507813 12.3371875 -11.56640625 11.609375 C-11.04949219 11.07828125 -10.53257812 10.5471875 -10 10 C-9.67 10.66 -9.34 11.32 -9 12 C-8.01 12 -7.02 12 -6 12 C-5.67 10.68 -5.34 9.36 -5 8 C-4.34 8 -3.68 8 -3 8 C-3 7.01 -3 6.02 -3 5 C-2.34 5 -1.68 5 -1 5 C-0.67 3.35 -0.34 1.7 0 0 Z " fill="#C8353B" transform="translate(326,234)"/>
<path d="M0 0 C6.63339232 1.83476809 10.77845752 7.64179854 14.9375 12.8125 C16.25293863 14.16349103 17.57925118 15.50455669 18.9375 16.8125 C17.9475 17.1425 16.9575 17.4725 15.9375 17.8125 C15.6075 17.1525 15.2775 16.4925 14.9375 15.8125 C12.92080173 14.67899466 12.92080173 14.67899466 10.9375 13.8125 C11.5975 13.8125 12.2575 13.8125 12.9375 13.8125 C12.9375 13.1525 12.9375 12.4925 12.9375 11.8125 C11.2875 11.8125 9.6375 11.8125 7.9375 11.8125 C7.9375 10.4925 7.9375 9.1725 7.9375 7.8125 C6.9475 7.8125 5.9575 7.8125 4.9375 7.8125 C4.6075 7.1525 4.2775 6.4925 3.9375 5.8125 C2.3114713 5.87250106 0.68648451 5.9612885 -0.9375 6.0625 C-1.84242188 6.10890625 -2.74734375 6.1553125 -3.6796875 6.203125 C-6.19339786 6.57244368 -6.19339786 6.57244368 -7.3828125 8.671875 C-8.21381465 10.91473069 -8.21381465 10.91473069 -8.0625 13.8125 C-11.16801666 13.8125 -12.41511084 13.2731285 -15.0625 11.8125 C-14.0725 11.4825 -13.0825 11.1525 -12.0625 10.8125 C-11.7325 9.8225 -11.4025 8.8325 -11.0625 7.8125 C-7.85962057 4.2427036 -4.68292296 1.24240813 0 0 Z " fill="#CA383F" transform="translate(302.0625,97.1875)"/>
<path d="M0 0 C0.99 0.66 1.98 1.32 3 2 C3.30457221 4.53005647 3.4202394 6.81183724 3.3984375 9.34375 C3.40130768 10.06864624 3.40417786 10.79354248 3.40713501 11.54040527 C3.40917731 13.07365703 3.40363577 14.60693474 3.39111328 16.14013672 C3.37506042 18.4911508 3.39095469 20.84044583 3.41015625 23.19140625 C3.40817385 24.67969131 3.40433022 26.16797529 3.3984375 27.65625 C3.40754654 28.71410706 3.40754654 28.71410706 3.4168396 29.79333496 C3.38818359 31.77539062 3.38818359 31.77539062 3 35 C-0.44633882 37.29755922 -1.71068391 37.23643976 -5.76171875 37.1953125 C-6.87998047 37.18886719 -7.99824219 37.18242187 -9.15039062 37.17578125 C-10.31763672 37.15902344 -11.48488281 37.14226562 -12.6875 37.125 C-13.86634766 37.11597656 -15.04519531 37.10695312 -16.25976562 37.09765625 C-19.17338026 37.07406423 -22.08658892 37.0411454 -25 37 C-25 36.67 -25 36.34 -25 36 C-17.08 35.67 -9.16 35.34 -1 35 C-0.67 23.45 -0.34 11.9 0 0 Z " fill="#F7CAC7" transform="translate(345,164)"/>
<path d="M0 0 C0.66 0.99 1.32 1.98 2 3 C1.25 4.9375 1.25 4.9375 0 7 C-2.125 7.75 -2.125 7.75 -4 8 C-3.979375 9.11375 -3.95875 10.2275 -3.9375 11.375 C-4 15 -4 15 -5 17 C-4.01 17 -3.02 17 -2 17 C-2 17.66 -2 18.32 -2 19 C-0.68 19 0.64 19 2 19 C2 19.99 2 20.98 2 22 C2.66 22.33 3.32 22.66 4 23 C4 23.66 4 24.32 4 25 C4.66 25 5.32 25 6 25 C5.67 25.99 5.34 26.98 5 28 C-7.37898089 18.00159236 -7.37898089 18.00159236 -8.75 11.375 C-7.74629912 6.85834603 -5.6825722 5.65145198 -2 3 C-1.34 2.01 -0.68 1.02 0 0 Z " fill="#BF3D3D" transform="translate(171,225)"/>
<path d="M0 0 C1.32 0.66 2.64 1.32 4 2 C3.46890625 2.53367188 2.9378125 3.06734375 2.390625 3.6171875 C-4.26447654 10.63661942 -8.05960087 17.0124144 -8.5625 26.8125 C-8.3545548 33.76510244 -5.83257866 39.72786154 -3 46 C-6.35241741 44.88252753 -6.64544115 44.61458536 -8.1875 41.625 C-11.40082486 33.76741654 -11.91797627 23.05503966 -9.34375 14.92822266 C-7.01052185 9.44709957 -3.60964962 4.69809782 0 0 Z " fill="#B83133" transform="translate(221,153)"/>
<path d="M0 0 C0.58007812 0.39832031 1.16015625 0.79664063 1.7578125 1.20703125 C10.5619986 7.17818717 17.39515103 9.66259323 28 11 C25.33440687 12.77706209 22.9719385 13.87548273 20 15 C20 14.01 20 13.02 20 12 C18.2365625 12.0309375 18.2365625 12.0309375 16.4375 12.0625 C12.52586533 12.06947261 8.85502056 11.64250343 5 11 C5.33 9.68 5.66 8.36 6 7 C5.05125 6.855625 4.1025 6.71125 3.125 6.5625 C0 6 0 6 -2 5 C-1.34 3.35 -0.68 1.7 0 0 Z " fill="#C33534" transform="translate(220,202)"/>
<path d="M0 0 C0.33 0 0.66 0 1 0 C1 10.23 1 20.46 1 31 C2.65 31.33 4.3 31.66 6 32 C6.33 32.33 6.66 32.66 7 33 C8.41120902 33.22571184 9.83176043 33.39388349 11.25390625 33.53515625 C12.10791016 33.62216797 12.96191406 33.70917969 13.84179688 33.79882812 C14.73962891 33.88583984 15.63746094 33.97285156 16.5625 34.0625 C17.46419922 34.15337891 18.36589844 34.24425781 19.29492188 34.33789062 C21.52958434 34.56253923 23.76457839 34.78305769 26 35 C26 35.33 26 35.66 26 36 C22.22942453 36.11597653 18.45930607 36.18717396 14.6875 36.25 C13.61564453 36.28351563 12.54378906 36.31703125 11.43945312 36.3515625 C10.41142578 36.36445313 9.38339844 36.37734375 8.32421875 36.390625 C7.37635498 36.41157227 6.42849121 36.43251953 5.4519043 36.45410156 C3 36 3 36 1.18554688 34.4375 C-0.45881616 31.05666793 -0.33762683 28.36065339 -0.29296875 24.609375 C-0.28872391 23.90476135 -0.28447906 23.20014771 -0.28010559 22.47418213 C-0.26336538 20.23239288 -0.22572404 17.99151569 -0.1875 15.75 C-0.17244704 14.22657552 -0.1587597 12.70313689 -0.14648438 11.1796875 C-0.11347791 7.45283059 -0.06172854 3.72650437 0 0 Z " fill="#CF5859" transform="translate(144,164)"/>
<path d="M0 0 C0.82077252 2.46231755 1.40852879 4.78130718 1.9375 7.3125 C2.53479934 10.07893905 3.21152842 12.62283368 4.125 15.3125 C5 18 5 18 5 22 C5.97610229 21.98428955 5.97610229 21.98428955 6.97192383 21.96826172 C9.9187433 21.92670165 12.86550111 21.90067392 15.8125 21.875 C16.83666016 21.85824219 17.86082031 21.84148437 18.91601562 21.82421875 C19.89892578 21.81777344 20.88183594 21.81132812 21.89453125 21.8046875 C22.80050049 21.79421387 23.70646973 21.78374023 24.63989258 21.77294922 C27 22 27 22 30 24 C29.34 24.66 28.68 25.32 28 26 C27.01 25.34 26.02 24.68 25 24 C22.68076726 23.63423946 22.68076726 23.63423946 20.11328125 23.5859375 C19.17548828 23.54726562 18.23769531 23.50859375 17.27148438 23.46875 C16.29501953 23.4378125 15.31855469 23.406875 14.3125 23.375 C13.32443359 23.33632812 12.33636719 23.29765625 11.31835938 23.2578125 C8.87909293 23.16354133 6.43983405 23.07793782 4 23 C3.01540929 20.6062703 2.03721297 18.2102493 1.0625 15.8125 C0.78470703 15.13896484 0.50691406 14.46542969 0.22070312 13.77148438 C-2.61118474 6.77706254 -2.61118474 6.77706254 -3 3 C-1.5625 1.1875 -1.5625 1.1875 0 0 Z " fill="#FDEAE5" transform="translate(316,137)"/>
<path d="M0 0 C0.33 0 0.66 0 1 0 C2.55982297 10.85552472 2.55982297 10.85552472 0 15 C-2.05395939 17.40809032 -3.90118805 18.94118336 -6.625 20.5625 C-9.25743604 21.92617739 -9.25743604 21.92617739 -11 25 C-13.625 25.1875 -13.625 25.1875 -16 25 C-15.29875 24.484375 -14.5975 23.96875 -13.875 23.4375 C-6.19946447 16.92998074 -2.27766965 9.80976534 0 0 Z " fill="#C33C41" transform="translate(277,184)"/>
<path d="M0 0 C0.99 0.66 1.98 1.32 3 2 C3.30454657 4.58941203 3.42017357 6.93601078 3.3984375 9.52734375 C3.40130768 10.27206436 3.40417786 11.01678497 3.40713501 11.78407288 C3.40917772 13.3602067 3.40363336 14.93636575 3.39111328 16.51245117 C3.37508376 18.92489435 3.39094187 21.33565651 3.41015625 23.74804688 C3.40817341 25.27864953 3.40432889 26.80925115 3.3984375 28.33984375 C3.40754654 29.42276955 3.40754654 29.42276955 3.4168396 30.52757263 C3.37689475 33.3746958 3.30649973 35.50168196 1.79418945 37.96044922 C-0.62228157 39.36054905 -2.3194788 39.34128071 -5.10546875 39.29296875 C-6.08837891 39.28330078 -7.07128906 39.27363281 -8.08398438 39.26367188 C-9.10814453 39.23853516 -10.13230469 39.21339844 -11.1875 39.1875 C-12.22326172 39.17396484 -13.25902344 39.16042969 -14.32617188 39.14648438 C-16.88463699 39.11111389 -19.4420578 39.06175544 -22 39 C-22 38.67 -22 38.34 -22 38 C-21.40985107 37.97494385 -20.81970215 37.9498877 -20.21166992 37.92407227 C-17.53673186 37.80799948 -14.8621362 37.68532428 -12.1875 37.5625 C-11.25873047 37.52318359 -10.32996094 37.48386719 -9.37304688 37.44335938 C-8.48037109 37.40146484 -7.58769531 37.35957031 -6.66796875 37.31640625 C-5.84578857 37.27974854 -5.0236084 37.24309082 -4.17651367 37.20532227 C-1.82094822 37.06572228 -1.82094822 37.06572228 1 36 C1.02472039 31.35522856 1.04286968 26.71049543 1.05493164 22.06567383 C1.05996014 20.48558892 1.06678378 18.90550866 1.07543945 17.32543945 C1.08756992 15.05418754 1.09324313 12.78299715 1.09765625 10.51171875 C1.10281754 9.80536789 1.10797882 9.09901703 1.11329651 8.3712616 C1.11364803 5.29745609 0.9803186 2.9409558 0 0 Z " fill="#B12F35" transform="translate(342,161)"/>
<path d="M0 0 C1.32 0 2.64 0 4 0 C4 0.66 4 1.32 4 2 C4.99 2.33 5.98 2.66 7 3 C7.33 3.66 7.66 4.32 8 5 C8.99 5.33 9.98 5.66 11 6 C11.33 6.66 11.66 7.32 12 8 C13.32 6.68 14.64 5.36 16 4 C16.66 4.33 17.32 4.66 18 5 C18 5.66 18 6.32 18 7 C17.34 7.66 16.68 8.32 16 9 C17.32 9.33 18.64 9.66 20 10 C14.66019417 13.15533981 14.66019417 13.15533981 11.875 12.5 C9.50656348 10.60525079 7.8809341 8.37882841 6 6 C4.93688745 5.05995713 3.85281938 4.14312837 2.75 3.25 C1.8425 2.5075 0.935 1.765 0 1 C0 0.67 0 0.34 0 0 Z " fill="#FCE7E7" transform="translate(193,100)"/>
<path d="M0 0 C2.16311438 1.72400465 2.93875073 2.57555794 3.34057617 5.36010742 C3.32486572 6.26607666 3.30915527 7.1720459 3.29296875 8.10546875 C3.28330078 9.08837891 3.27363281 10.07128906 3.26367188 11.08398438 C3.23853516 12.10814453 3.21339844 13.13230469 3.1875 14.1875 C3.17396484 15.22326172 3.16042969 16.25902344 3.14648438 17.32617188 C3.11111389 19.88463699 3.06175544 22.4420578 3 25 C4.093125 25.12375 5.18625 25.2475 6.3125 25.375 C10 26 10 26 13 28 C8.29284832 27.4351418 4.57427092 26.52475697 0 25 C0.33 17.74 0.66 10.48 1 3 C0.34 2.67 -0.32 2.34 -1 2 C-0.67 1.34 -0.34 0.68 0 0 Z " fill="#BB4044" transform="translate(262,81)"/>
<path d="M0 0 C6.6 0 13.2 0 20 0 C21.65 4.62 23.3 9.24 25 14 C24.01 14.33 23.02 14.66 22 15 C22 13.68 22 12.36 22 11 C21.34 11 20.68 11 20 11 C19.34 8.03 18.68 5.06 18 2 C12.06 1.67 6.12 1.34 0 1 C0 0.67 0 0.34 0 0 Z " fill="#FDDEDA" transform="translate(150,200)"/>
<path d="M0 0 C3.26189156 0.5623951 4.91134848 1.4140505 7 4 C7.33 4.99 7.66 5.98 8 7 C6.75 8.5625 6.75 8.5625 5 10 C1.16661877 9.87222063 -1.19976996 7.4113092 -4 5 C-2.68 5 -1.36 5 0 5 C0 3.35 0 1.7 0 0 Z " fill="#CA3633" transform="translate(264,146)"/>
<path d="M0 0 C2.96251792 1.15610455 5.75892741 2.50041466 8.5625 4 C8.5625 4.33 8.5625 4.66 8.5625 5 C-0.84752278 7.11161731 -0.84752278 7.11161731 -5.4375 8 C-5.4375 7.34 -5.4375 6.68 -5.4375 6 C-6.0975 5.67 -6.7575 5.34 -7.4375 5 C-3.16920732 0 -3.16920732 0 0 0 Z " fill="#F8FCF8" transform="translate(207.4375,248)"/>
<path d="M0 0 C0.33 0 0.66 0 1 0 C1.05785647 3.95827235 1.09354717 7.9164367 1.125 11.875 C1.14175781 13.00292969 1.15851563 14.13085938 1.17578125 15.29296875 C1.18222656 16.36933594 1.18867188 17.44570312 1.1953125 18.5546875 C1.20578613 19.54968262 1.21625977 20.54467773 1.22705078 21.56982422 C1 24 1 24 -1 26 C-5.62660327 27.54220109 -10.16538411 28.40800622 -15 29 C-10.95001278 25.59801074 -6.36373351 23 -1 23 C-1.00523682 22.3387915 -1.01047363 21.67758301 -1.01586914 20.99633789 C-1.03657656 18.01840149 -1.04964012 15.04048018 -1.0625 12.0625 C-1.07087891 11.02158203 -1.07925781 9.98066406 -1.08789062 8.90820312 C-1.09111328 7.91884766 -1.09433594 6.92949219 -1.09765625 5.91015625 C-1.10289307 4.99371338 -1.10812988 4.07727051 -1.11352539 3.13305664 C-1 1 -1 1 0 0 Z " fill="#BC474A" transform="translate(226,82)"/>
<path d="M0 0 C0.33 0.99 0.66 1.98 1 3 C0.525625 3.391875 0.05125 3.78375 -0.4375 4.1875 C-2.46401578 6.53825831 -2.85571521 7.89787709 -3 11 C-1.42042918 15.29799298 -1.42042918 15.29799298 2 18 C2 18.66 2 19.32 2 20 C2.99 20.33 3.98 20.66 5 21 C4.67 21.99 4.34 22.98 4 24 C2.34204471 22.45036847 0.69901956 20.88475231 -0.9375 19.3125 C-1.85402344 18.44238281 -2.77054688 17.57226562 -3.71484375 16.67578125 C-6.09200332 13.89226962 -7.04610995 12.64268595 -7 9 C-5.56640625 6.54296875 -5.56640625 6.54296875 -3.5625 4.1875 C-2.90378906 3.39730469 -2.24507812 2.60710937 -1.56640625 1.79296875 C-1.04949219 1.20128906 -0.53257812 0.60960938 0 0 Z " fill="#BD4044" transform="translate(169,113)"/>
<path d="M0 0 C0.33 1.32 0.66 2.64 1 4 C0.48050781 4.44730469 -0.03898437 4.89460937 -0.57421875 5.35546875 C-1.27160156 5.96003906 -1.96898437 6.56460938 -2.6875 7.1875 C-3.42484375 7.82171875 -4.1621875 8.4559375 -4.921875 9.109375 C-7.17157106 11.06777803 -7.17157106 11.06777803 -9.4375 13.9375 C-13.14154338 16.91880321 -16.41801176 16.44921453 -21 16 C-21 15.67 -21 15.34 -21 15 C-19.99839844 14.98066406 -18.99679687 14.96132813 -17.96484375 14.94140625 C-12.75508066 14.19715438 -9.99186907 10.64992811 -6.5625 6.9375 C-5.92634766 6.27427734 -5.29019531 5.61105469 -4.63476562 4.92773438 C-3.07532388 3.29794187 -1.53165061 1.65586432 0 0 Z " fill="#FDEEEA" transform="translate(319,248)"/>
<path d="M0 0 C0.33 0 0.66 0 1 0 C1.20970151 5.13768696 0.40341225 9.08805711 -1 14 C-1.07403678 16.33215844 -1.09515886 18.66860788 -1 21 C-1.66 21.33 -2.32 21.66 -3 22 C-4.5625 20.875 -4.5625 20.875 -6 19 C-5.57087732 14.38693118 -4.14292639 10.41043042 -2.4375 6.125 C-1.75494141 4.39636719 -1.75494141 4.39636719 -1.05859375 2.6328125 C-0.70925781 1.76398438 -0.35992187 0.89515625 0 0 Z " fill="#FAE4DE" transform="translate(319,202)"/>
<path d="M0 0 C3.45195767 1.4258086 5.1014256 3.09746334 7.25 6.125 C7.77078125 6.84945313 8.2915625 7.57390625 8.828125 8.3203125 C9.40820312 9.15175781 9.40820312 9.15175781 10 10 C9.01 10.33 8.02 10.66 7 11 C6.62875 10.360625 6.2575 9.72125 5.875 9.0625 C3.37166847 6.30883532 1.65632365 6.22385655 -2 6 C-4.27650745 6.3577614 -4.27650745 6.3577614 -6 7 C-4.625 5 -4.625 5 -3 3 C-2.34 3 -1.68 3 -1 3 C-0.67 2.01 -0.34 1.02 0 0 Z " fill="#A7AED1" transform="translate(298,272)"/>
<path d="M0 0 C4.0084034 2.0042017 5.41409657 3.49055963 8 7 C7.01 7.495 7.01 7.495 6 8 C5.01 7.34 4.02 6.68 3 6 C3 5.34 3 4.68 3 4 C0.59122743 4.11341534 0.59122743 4.11341534 -2 5 C-3.73538192 7.39224959 -3.73538192 7.39224959 -5 10 C-5.66 10.66 -6.32 11.32 -7 12 C-7.99 11.67 -8.98 11.34 -10 11 C-6.7 7.37 -3.4 3.74 0 0 Z " fill="#AAB1D3" transform="translate(190,272)"/>
<path d="M0 0 C2.25 4.5 2.25 4.5 1.9765625 8.109375 C1.925 8.86347656 1.8734375 9.61757812 1.8203125 10.39453125 C1.75585938 11.17183594 1.69140625 11.94914062 1.625 12.75 C1.56828125 13.54277344 1.5115625 14.33554688 1.453125 15.15234375 C1.31216305 17.10231735 1.1574288 19.05128671 1 21 C2.07507813 20.97292969 3.15015625 20.94585937 4.2578125 20.91796875 C8.8428414 21.01847565 11.01502105 21.84811137 15 24 C15.33 24.99 15.66 25.98 16 27 C15.43152344 26.80664062 14.86304688 26.61328125 14.27734375 26.4140625 C13.50519531 26.15367188 12.73304688 25.89328125 11.9375 25.625 C11.18339844 25.36976562 10.42929687 25.11453125 9.65234375 24.8515625 C6.4580255 23.82599346 3.22583202 22.92166629 0 22 C0 14.74 0 7.48 0 0 Z " fill="#FCDAD8" transform="translate(265,84)"/>
<path d="M0 0 C0 0.33 0 0.66 0 1 C-1.05960938 1.04898438 -2.11921875 1.09796875 -3.2109375 1.1484375 C-4.59898497 1.22346709 -5.98700451 1.29901485 -7.375 1.375 C-8.42300781 1.42140625 -8.42300781 1.42140625 -9.4921875 1.46875 C-13.70185827 1.59499498 -13.70185827 1.59499498 -17 4 C-19.31765729 4.71927295 -21.65095874 5.3909893 -24 6 C-24 6.66 -24 7.32 -24 8 C-25.65 8 -27.3 8 -29 8 C-20.96042408 -1.29575965 -11.33721421 -0.37148639 0 0 Z " fill="#FBE1DA" transform="translate(253,148)"/>
<path d="M0 0 C0.33 0.99 0.66 1.98 1 3 C1.33 3.78375 1.66 4.5675 2 5.375 C2.96876822 7.91801659 3.54114054 10.32331983 4 13 C4.66 13 5.32 13 6 13 C6.33 15.64 6.66 18.28 7 21 C4.44624385 17.82505993 2.62552847 14.51896339 0.8125 10.875 C0.28269531 9.82054687 -0.24710938 8.76609375 -0.79296875 7.6796875 C-2 5 -2 5 -2 3 C-2.66 2.67 -3.32 2.34 -4 2 C-2.68 1.34 -1.36 0.68 0 0 Z " fill="#A1A7C9" transform="translate(170,297)"/>
<path d="M0 0 C0.66 0.66 1.32 1.32 2 2 C1.9375 4.375 1.9375 4.375 1 7 C-1.4375 9.125 -1.4375 9.125 -4 11 C-4.99 12.485 -4.99 12.485 -6 14 C-6.66 14 -7.32 14 -8 14 C-8.33 14.99 -8.66 15.98 -9 17 C-9.66 16.01 -10.32 15.02 -11 14 C-9.33333333 12.33333333 -7.66666667 10.66666667 -6 9 C-5.1646875 8.1028125 -5.1646875 8.1028125 -4.3125 7.1875 C-3 6 -3 6 -1 6 C-1.33 4.68 -1.66 3.36 -2 2 C-1.34 2 -0.68 2 0 2 C0 1.34 0 0.68 0 0 Z " fill="#F9DDD9" transform="translate(175,215)"/>
<path d="M0 0 C0.99 0 1.98 0 3 0 C2.34 1.98 1.68 3.96 1 6 C0.34 6 -0.32 6 -1 6 C-1 15.24 -1 24.48 -1 34 C-1.33 34 -1.66 34 -2 34 C-2.049377 29.47934572 -2.08570823 24.95884783 -2.10986328 20.43798828 C-2.11993118 18.89954902 -2.13358646 17.36112893 -2.15087891 15.82275391 C-2.17509317 13.61355867 -2.18647491 11.40461605 -2.1953125 9.1953125 C-2.20563507 8.50567413 -2.21595764 7.81603577 -2.22659302 7.10549927 C-2.22699478 5.40199094 -2.12191026 3.69914057 -2 2 C-1.34 1.34 -0.68 0.68 0 0 Z " fill="#BA3132" transform="translate(147,161)"/>
<path d="M0 0 C0.33 0.99 0.66 1.98 1 3 C-0.29296875 5.19140625 -0.29296875 5.19140625 -2.1875 7.5625 C-3.10595703 8.74005859 -3.10595703 8.74005859 -4.04296875 9.94140625 C-5.98632328 11.98561351 -7.37406389 13.02645655 -10 14 C-10.99 14 -11.98 14 -13 14 C-12.67 13.34 -12.34 12.68 -12 12 C-11.34 12 -10.68 12 -10 12 C-9.75507813 11.42765625 -9.51015625 10.8553125 -9.2578125 10.265625 C-7.78889901 7.61975598 -6.04651756 5.85146861 -3.875 3.75 C-3.15054688 3.04359375 -2.42609375 2.3371875 -1.6796875 1.609375 C-1.12539062 1.07828125 -0.57109375 0.5471875 0 0 Z " fill="#DEE3F5" transform="translate(239,332)"/>
<path d="M0 0 C2.08301383 2.49961659 3.74764619 5.15674019 5.3125 8 C5.86357422 8.99 5.86357422 8.99 6.42578125 10 C7 12 7 12 6.10546875 14.25 C5.74066406 14.8275 5.37585938 15.405 5 16 C-0.74031891 5.62642369 -0.74031891 5.62642369 0 0 Z " fill="#595E67" transform="translate(185,336)"/>
<path d="M0 0 C2.64465038 3.1254959 3.84414715 6.08788267 5 10 C4.34 10.66 3.68 11.32 3 12 C2.01 12 1.02 12 0 12 C-0.19477739 10.37585622 -0.38059458 8.75063577 -0.5625 7.125 C-0.66691406 6.22007812 -0.77132812 5.31515625 -0.87890625 4.3828125 C-1 2 -1 2 0 0 Z " fill="#5A5D68" transform="translate(170,306)"/>
<path d="M0 0 C0.33 0 0.66 0 1 0 C2.8613156 7.44526242 2.06663468 13.76677863 0 21 C-0.33 21 -0.66 21 -1 21 C-1.18451025 6.21867882 -1.18451025 6.21867882 0 0 Z " fill="#F7DAD2" transform="translate(276,171)"/>
<path d="M0 0 C-3.16952847 3.26008643 -6.39937989 6.22237877 -10 9 C-10.66 8.34 -11.32 7.68 -12 7 C-11.54625 6.5875 -11.0925 6.175 -10.625 5.75 C-8.90313178 4.07330411 -8.90313178 4.07330411 -8 1.875 C-6.08433109 -1.71687922 -3.37138337 -1.04629139 0 0 Z " fill="#FAE9E2" transform="translate(180,104)"/>
<path d="M0 0 C0.66 0.99 1.32 1.98 2 3 C1.25 4.9375 1.25 4.9375 0 7 C-2.125 7.75 -2.125 7.75 -4 8 C-4 9.65 -4 11.3 -4 13 C-4.66 13 -5.32 13 -6 13 C-6.66 11.35 -7.32 9.7 -8 8 C-6.50260417 6.79557292 -5.00520833 5.59114583 -3.5078125 4.38671875 C-1.74707893 2.87729455 -1.74707893 2.87729455 0 0 Z " fill="#CA3E42" transform="translate(171,225)"/>
<path d="M0 0 C0 3 0 3 -3 11 C-9.93 11 -16.86 11 -24 11 C-24 10.67 -24 10.34 -24 10 C-17.4 10 -10.8 10 -4 10 C-3.67 7.36 -3.34 4.72 -3 2 C-2.01 1.34 -1.02 0.68 0 0 Z " fill="#FBE1E2" transform="translate(173,149)"/>
<path d="M0 0 C0.66 0.33 1.32 0.66 2 1 C0.68 1.33 -0.64 1.66 -2 2 C-1.67 9.92 -1.34 17.84 -1 26 C-2.32 25.67 -3.64 25.34 -5 25 C-4.67 24.34 -4.34 23.68 -4 23 C-3.84777027 21.33434251 -3.75082785 19.66343504 -3.68359375 17.9921875 C-3.64169922 17.00605469 -3.59980469 16.01992188 -3.55664062 15.00390625 C-3.51732422 13.97136719 -3.47800781 12.93882812 -3.4375 11.875 C-3.39431641 10.83472656 -3.35113281 9.79445313 -3.30664062 8.72265625 C-3.2003712 6.14857472 -3.09833417 3.57439492 -3 1 C-2.01 0.67 -1.02 0.34 0 0 Z " fill="#FDE2DE" transform="translate(268,254)"/>
<path d="M0 0 C6.52307692 0.61538462 6.52307692 0.61538462 8.9375 2.5625 C9.288125 3.036875 9.63875 3.51125 10 4 C6.18243176 5.37432457 2.92744671 4.67975039 -1 4 C-0.34 3.34 0.32 2.68 1 2 C0.67 1.34 0.34 0.68 0 0 Z " fill="#60605E" transform="translate(337,305)"/>
<path d="M0 0 C3.86083225 0.22061899 4.89588557 0.88572806 7.5625 3.8125 C8.17351562 4.61494141 8.17351562 4.61494141 8.796875 5.43359375 C10.36049678 7.46934808 12.15356862 9.22195497 14 11 C13.01 11.33 12.02 11.66 11 12 C10.67 11.34 10.34 10.68 10 10 C7.98330173 8.86649466 7.98330173 8.86649466 6 8 C6.66 8 7.32 8 8 8 C8 7.34 8 6.68 8 6 C6.35 6 4.7 6 3 6 C3 4.68 3 3.36 3 2 C2.01 2 1.02 2 0 2 C0 1.34 0 0.68 0 0 Z " fill="#CE4549" transform="translate(307,103)"/>
<path d="M0 0 C1.07918977 3.5224754 1.16644265 6.82759801 1.1875 10.5 C1.20167969 11.6240625 1.21585938 12.748125 1.23046875 13.90625 C1.00970218 16.86976056 0.5460647 18.5067415 -1 21 C-3.19648703 14.41053892 -2.81864489 6.34195101 0 0 Z " fill="#F2BFBA" transform="translate(214,168)"/>
<path d="M0 0 C0.99 0.33 1.98 0.66 3 1 C2.06027344 1.92232422 2.06027344 1.92232422 1.1015625 2.86328125 C0.28429687 3.67152344 -0.53296875 4.47976562 -1.375 5.3125 C-2.18710937 6.11300781 -2.99921875 6.91351563 -3.8359375 7.73828125 C-6.12604842 10.00009937 -6.12604842 10.00009937 -8 13 C-8.93423645 9.98968256 -9.04449911 9.13349732 -8 6 C-6.35 5.67 -4.7 5.34 -3 5 C-3 4.01 -3 3.02 -3 2 C-2.01 2 -1.02 2 0 2 C0 1.34 0 0.68 0 0 Z " fill="#BC4344" transform="translate(320,130)"/>
<path d="M0 0 C0.33 0 0.66 0 1 0 C1.02505615 0.62044189 1.0501123 1.24088379 1.07592773 1.88012695 C1.19196721 4.69112397 1.31465759 7.50179241 1.4375 10.3125 C1.47681641 11.28896484 1.51613281 12.26542969 1.55664062 13.27148438 C1.59853516 14.20927734 1.64042969 15.14707031 1.68359375 16.11328125 C1.72025146 16.97735596 1.75690918 17.84143066 1.79467773 18.73168945 C2.09060255 22.00093729 2.66193465 23.66193465 5 26 C3.35 25.67 1.7 25.34 0 25 C0 16.75 0 8.5 0 0 Z " fill="#FDDEDB" transform="translate(224,255)"/>
<path d="M0 0 C2 2 2 2 2 5 C1.34 5 0.68 5 0 5 C-0.33 5.99 -0.66 6.98 -1 8 C-2.9375 7.6875 -2.9375 7.6875 -5 7 C-5.33 6.01 -5.66 5.02 -6 4 C-5.01 3.67 -4.02 3.34 -3 3 C-1.33289654 1.50014391 -1.33289654 1.50014391 0 0 Z " fill="#DC292F" transform="translate(279,242)"/>
<path d="M0 0 C1.65 0 3.3 0 5 0 C4.98839844 0.61488281 4.97679687 1.22976562 4.96484375 1.86328125 C4.95582031 2.67152344 4.94679687 3.47976562 4.9375 4.3125 C4.92589844 5.11300781 4.91429687 5.91351563 4.90234375 6.73828125 C4.90342145 9.16861334 4.90342145 9.16861334 6 12 C5.01 12.495 5.01 12.495 4 13 C3.32942113 11.2097939 2.6636531 9.41778511 2 7.625 C1.62875 6.62726563 1.2575 5.62953125 0.875 4.6015625 C0 2 0 2 0 0 Z " fill="#BE3F41" transform="translate(170,200)"/>
<path d="M0 0 C0.33 0.66 0.66 1.32 1 2 C0.32517578 3.28777344 0.32517578 3.28777344 -0.36328125 4.6015625 C-2.28763405 8.59723537 -2.75745696 12.01144405 -3.1875 16.375 C-3.26935547 17.11105469 -3.35121094 17.84710938 -3.43554688 18.60546875 C-3.63392556 20.40254625 -3.81840577 22.20114893 -4 24 C-4.33 24 -4.66 24 -5 24 C-5.53873239 6.04225352 -5.53873239 6.04225352 0 0 Z " fill="#FDEAE5" transform="translate(219,160)"/>
<path d="M0 0 C1.32 0.66 2.64 1.32 4 2 C2.70910257 3.4590143 1.41725561 4.91718851 0.125 6.375 C-0.59429687 7.18710938 -1.31359375 7.99921875 -2.0546875 8.8359375 C-3.33295938 10.25795079 -4.64794586 11.64794586 -6 13 C-5.25160674 7.76124715 -2.89140827 4.3371124 0 0 Z " fill="#C14247" transform="translate(221,153)"/>
<path d="M0 0 C1.32 0 2.64 0 4 0 C4 0.66 4 1.32 4 2 C4.99 2.33 5.98 2.66 7 3 C7.33 3.66 7.66 4.32 8 5 C8.99 5.33 9.98 5.66 11 6 C11.33 6.99 11.66 7.98 12 9 C11.34 9.66 10.68 10.32 10 11 C9.46375 10.278125 8.9275 9.55625 8.375 8.8125 C6.53443943 6.6328888 4.9291455 5.0212012 2.75 3.25 C1.8425 2.5075 0.935 1.765 0 1 C0 0.67 0 0.34 0 0 Z " fill="#F9D9D6" transform="translate(193,100)"/>
<path d="M0 0 C0.66 0 1.32 0 2 0 C1.67 1.98 1.34 3.96 1 6 C1.99 6.33 2.98 6.66 4 7 C4.90837763 9.47739354 5 11.33579484 5 14 C4.01 14.495 4.01 14.495 3 15 C2 13 2 13 1.5625 11.0625 C1.03952847 8.71671263 1.03952847 8.71671263 -1 6 C-1.1875 3.375 -1.1875 3.375 -1 1 C-0.67 0.67 -0.34 0.34 0 0 Z " fill="#C74344" transform="translate(312,215)"/>
<path d="M0 0 C0.66 0.99 1.32 1.98 2 3 C0.27599535 5.16311438 -0.57555794 5.93875073 -3.36010742 6.34057617 C-4.26607666 6.32486572 -5.1720459 6.30915527 -6.10546875 6.29296875 C-7.08837891 6.28330078 -8.07128906 6.27363281 -9.08398438 6.26367188 C-10.10814453 6.23853516 -11.13230469 6.21339844 -12.1875 6.1875 C-13.22326172 6.17396484 -14.25902344 6.16042969 -15.32617188 6.14648438 C-17.88463699 6.11111389 -20.4420578 6.06175544 -23 6 C-23 5.67 -23 5.34 -23 5 C-22.40985107 4.97494385 -21.81970215 4.9498877 -21.21166992 4.92407227 C-18.53673186 4.80799948 -15.8621362 4.68532428 -13.1875 4.5625 C-12.25873047 4.52318359 -11.32996094 4.48386719 -10.37304688 4.44335938 C-9.48037109 4.40146484 -8.58769531 4.35957031 -7.66796875 4.31640625 C-6.84578857 4.27974854 -6.0236084 4.24309082 -5.17651367 4.20532227 C-2.82094822 4.06572228 -2.82094822 4.06572228 0 3 C0 2.01 0 1.02 0 0 Z " fill="#B2393C" transform="translate(343,194)"/>
<path d="M0 0 C0.66 0.99 1.32 1.98 2 3 C1.34 3 0.68 3 0 3 C-0.12375 3.94875 -0.2475 4.8975 -0.375 5.875 C-1 9 -1 9 -3 11 C-3.71408334 12.98356483 -4.38617742 14.98315437 -5 17 C-5.66 16.67 -6.32 16.34 -7 16 C-5.35433477 10.31497465 -2.70967216 5.23318364 0 0 Z " fill="#595D6B" transform="translate(308,328)"/>
<path d="M0 0 C4.13621084 3.3810038 7.81316569 6.66590534 11 11 C7.49053006 10.69918829 6.02211769 10.0180963 3.25 7.75 C0.9819037 4.97788231 0.30081171 3.50946994 0 0 Z " fill="#FCE7E0" transform="translate(164,242)"/>
<path d="M0 0 C0.66 0 1.32 0 2 0 C2 0.66 2 1.32 2 2 C2.66 2 3.32 2 4 2 C6.30844801 8.34823202 6.19818283 14.29481414 6 21 C5.67 21 5.34 21 5 21 C4.80664062 19.90300781 4.61328125 18.80601562 4.4140625 17.67578125 C4.15131825 16.22130418 3.88828199 14.76687983 3.625 13.3125 C3.49867188 12.59126953 3.37234375 11.87003906 3.2421875 11.12695312 C2.52507241 7.200748 1.660678 3.66071195 0 0 Z " fill="#B93539" transform="translate(273,163)"/>
<path d="M0 0 C0.99 0.33 1.98 0.66 3 1 C1.78521149 2.18163051 0.55247592 3.34482835 -0.6875 4.5 C-1.37199219 5.1496875 -2.05648437 5.799375 -2.76171875 6.46875 C-5.40656372 8.27813784 -6.86162389 8.3077917 -10 8 C-10.33 7.34 -10.66 6.68 -11 6 C-8.36 5.67 -5.72 5.34 -3 5 C-2.87625 4.360625 -2.7525 3.72125 -2.625 3.0625 C-2.41875 2.381875 -2.2125 1.70125 -2 1 C-1.34 0.67 -0.68 0.34 0 0 Z " fill="#BC464B" transform="translate(195,255)"/>
<path d="M0 0 C2.96251792 1.15610455 5.75892741 2.50041466 8.5625 4 C8.5625 4.33 8.5625 4.66 8.5625 5 C1.85282258 4.09677419 1.85282258 4.09677419 -0.6875 3.25 C-1.265 3.1675 -1.8425 3.085 -2.4375 3 C-4.20940909 4.35444301 -4.20940909 4.35444301 -5.4375 6 C-6.0975 5.67 -6.7575 5.34 -7.4375 5 C-3.16920732 0 -3.16920732 0 0 0 Z " fill="#FEDED9" transform="translate(207.4375,248)"/>
<path d="M0 0 C0.99 0 1.98 0 3 0 C1.25740319 9.59453303 1.25740319 9.59453303 -2 13 C-1.85769192 11.58297487 -1.71099254 10.1663904 -1.5625 8.75 C-1.48128906 7.96109375 -1.40007812 7.1721875 -1.31640625 6.359375 C-1.02365007 4.17635361 -0.57935581 2.1226818 0 0 Z " fill="#BE3B42" transform="translate(316,202)"/>
<path d="M0 0 C2.31314718 2.01467657 3.82942266 3.6086755 5.0625 6.4375 C5 9 5 9 2.5625 11.8125 C1.716875 12.534375 0.87125 13.25625 0 14 C0.33 12.35 0.66 10.7 1 9 C1.66 9 2.32 9 3 9 C2.72382467 7.05925139 2.72382467 7.05925139 2 5 C1.01 4.34 0.02 3.68 -1 3 C-0.67 2.01 -0.34 1.02 0 0 Z " fill="#BD494A" transform="translate(323,116)"/>
<path d="M0 0 C2.52588702 2.36292656 3.88820837 3.66462511 5 7 C2.33579484 7 0.47739354 6.90837763 -2 6 C-2.33 5.01 -2.66 4.02 -3 3 C-2.34 3 -1.68 3 -1 3 C-0.67 2.01 -0.34 1.02 0 0 Z " fill="#61615E" transform="translate(221,392)"/>
<path d="M0 0 C0.99 0.33 1.98 0.66 3 1 C3 1.66 3 2.32 3 3 C3.66 3 4.32 3 5 3 C5.66 4.65 6.32 6.3 7 8 C4 8 4 8 2.39453125 6.46875 C1.87246094 5.8190625 1.35039062 5.169375 0.8125 4.5 C0.28269531 3.8503125 -0.24710938 3.200625 -0.79296875 2.53125 C-1.19128906 2.0259375 -1.58960938 1.520625 -2 1 C-1.34 0.67 -0.68 0.34 0 0 Z " fill="#C73F3F" transform="translate(178,252)"/>
<path d="M0 0 C1 2 1 2 1.375 3.9375 C1.82869065 6.10751848 1.82869065 6.10751848 3.625 7.375 C4.07875 7.91125 4.5325 8.4475 5 9 C4.6875 12.1875 4.6875 12.1875 4 15 C3.67 15 3.34 15 3 15 C2.34 12.36 1.68 9.72 1 7 C0.34 7 -0.32 7 -1 7 C-1.625 4.625 -1.625 4.625 -2 2 C-1.34 1.34 -0.68 0.68 0 0 Z " fill="#DDE2F1" transform="translate(225,347)"/>
<path d="M0 0 C0.66 0 1.32 0 2 0 C2.12375 1.093125 2.2475 2.18625 2.375 3.3125 C2.75464801 7.07381802 2.75464801 7.07381802 5 10 C2.15616877 8.7251791 -0.13754018 7.54862922 -2 5 C-1.74853421 2.86254078 -1.54074221 1.54074221 0 0 Z " fill="#A5A8CD" transform="translate(248,322)"/>
<path d="M0 0 C0.99 0.33 1.98 0.66 3 1 C-0.61139896 5.31606218 -0.61139896 5.31606218 -3 7 C-6.875 6.875 -6.875 6.875 -10 6 C-10 5.67 -10 5.34 -10 5 C-7.36 4.67 -4.72 4.34 -2 4 C-2 3.01 -2 2.02 -2 1 C-1.34 0.67 -0.68 0.34 0 0 Z " fill="#BA454C" transform="translate(308,256)"/>
<path d="M0 0 C3.16277272 1.58138636 3.43093689 4.32596051 4.625 7.5625 C5.29402344 9.35880859 5.29402344 9.35880859 5.9765625 11.19140625 C6.31429687 12.11824219 6.65203125 13.04507813 7 14 C4 13 4 13 2.83203125 11.07421875 C2.49558594 10.28660156 2.15914062 9.49898437 1.8125 8.6875 C1.46832031 7.90761719 1.12414062 7.12773437 0.76953125 6.32421875 C0 4 0 4 0 0 Z " fill="#BC3D43" transform="translate(211,185)"/>
<path d="M0 0 C2.64 0.33 5.28 0.66 8 1 C7.67 1.99 7.34 2.98 7 4 C6.34 4 5.68 4 5 4 C5 3.34 5 2.68 5 2 C4.01 2 3.02 2 2 2 C1.34 3.32 0.68 4.64 0 6 C-0.66 6 -1.32 6 -2 6 C-1.34 4.02 -0.68 2.04 0 0 Z " fill="#605F66" transform="translate(322,300)"/>
<path d="M0 0 C0.66 0 1.32 0 2 0 C1.4375 3.375 1.4375 3.375 0 7 C-3.625 8.4375 -3.625 8.4375 -7 9 C-6.57847656 8.51789063 -6.15695312 8.03578125 -5.72265625 7.5390625 C-5.17480469 6.90742188 -4.62695312 6.27578125 -4.0625 5.625 C-3.51722656 4.99851563 -2.97195313 4.37203125 -2.41015625 3.7265625 C-0.93041376 2.04367666 -0.93041376 2.04367666 0 0 Z " fill="#FDEBE6" transform="translate(327,239)"/>
<path d="M0 0 C0.33 1.32 0.66 2.64 1 4 C-0.45635371 4.22174933 -1.91522956 4.42698698 -3.375 4.625 C-4.18710938 4.74101562 -4.99921875 4.85703125 -5.8359375 4.9765625 C-6.55007812 4.98429688 -7.26421875 4.99203125 -8 5 C-8.66 4.34 -9.32 3.68 -10 3 C-5.05 1.515 -5.05 1.515 0 0 Z " fill="#BE4243" transform="translate(260,209)"/>
<path d="M0 0 C1.32 0.33 2.64 0.66 4 1 C4 1.66 4 2.32 4 3 C5.65 3.33 7.3 3.66 9 4 C9.33 5.32 9.66 6.64 10 8 C5.43041625 6.02677065 2.86536704 4.07763771 0 0 Z " fill="#FCDDD9" transform="translate(220,201)"/>
<path d="M0 0 C1.65 0 3.3 0 5 0 C6.125 4.75 6.125 4.75 5 7 C4.01 7 3.02 7 2 7 C1.34 4.69 0.68 2.38 0 0 Z " fill="#C53B39" transform="translate(175,137)"/>
<path d="M0 0 C4.60862461 1.49102561 7.53330244 3.69454418 11 7 C11 7.99 11 8.98 11 10 C7.56618799 8.855396 6.41427241 7.27405536 4.20703125 4.5 C2.9062097 2.88344506 1.5058335 1.42657911 0 0 Z " fill="#F8DFD7" transform="translate(308,101)"/>
<path d="M0 0 C1.09963323 3.29889968 0.96180159 3.94130026 -0.1875 7.0625 C-0.42855469 7.75472656 -0.66960937 8.44695312 -0.91796875 9.16015625 C-2 11 -2 11 -6 13 C-4.02 8.71 -2.04 4.42 0 0 Z " fill="#5C5E6F" transform="translate(316,312)"/>
<path d="M0 0 C2.20805524 -0.0544452 4.41650554 -0.09299283 6.625 -0.125 C7.85476562 -0.14820313 9.08453125 -0.17140625 10.3515625 -0.1953125 C13.94316041 -0.0030428 16.66661175 0.69741444 20 2 C20 2.66 20 3.32 20 4 C19.113125 3.690625 18.22625 3.38125 17.3125 3.0625 C11.69122053 1.42489586 5.81447802 1.33225589 0 1 C0 0.67 0 0.34 0 0 Z " fill="#C44F56" transform="translate(240,147)"/>
<path d="M0 0 C0.66 1.32 1.32 2.64 2 4 C1.3503125 4.8353125 1.3503125 4.8353125 0.6875 5.6875 C-1.03504767 8.04802829 -2.52833152 10.47713975 -4 13 C-4.66 12.67 -5.32 12.34 -6 12 C-4.02 8.04 -2.04 4.08 0 0 Z " fill="#5A5D6B" transform="translate(300,344)"/>
<path d="M0 0 C0.66 0.33 1.32 0.66 2 1 C1.50769231 6.53846154 1.50769231 6.53846154 -1.0625 8.875 C-2.0215625 9.431875 -2.0215625 9.431875 -3 10 C-3 8.35 -3 6.7 -3 5 C-2.34 5 -1.68 5 -1 5 C-0.67 3.35 -0.34 1.7 0 0 Z " fill="#BE4948" transform="translate(326,234)"/>
<path d="M0 0 C0.99 0.33 1.98 0.66 3 1 C2.67 2.32 2.34 3.64 2 5 C1.34 5 0.68 5 0 5 C-0.33 5.66 -0.66 6.32 -1 7 C-1.99 7.33 -2.98 7.66 -4 8 C-3.34 6.02 -2.68 4.04 -2 2 C-1.34 2 -0.68 2 0 2 C0 1.34 0 0.68 0 0 Z " fill="#595F69" transform="translate(282,368)"/>
<path d="M0 0 C0.66 0 1.32 0 2 0 C3.0257259 4.41062136 3.03684712 6.92630576 1 11 C0.67 11 0.34 11 0 11 C0 7.37 0 3.74 0 0 Z " fill="#DB2A31" transform="translate(228,94)"/>
<path d="M0 0 C0.268125 0.639375 0.53625 1.27875 0.8125 1.9375 C1.88667752 4.33131686 1.88667752 4.33131686 5 5 C4.67 6.32 4.34 7.64 4 9 C2.02 6.69 0.04 4.38 -2 2 C-1.34 2 -0.68 2 0 2 C0 1.34 0 0.68 0 0 Z " fill="#F9D7D8" transform="translate(323,226)"/>
<path d="M0 0 C0.99 0 1.98 0 3 0 C1.73058503 3.91402949 0.48832306 5.79072873 -3 8 C-2.67 6.02 -2.34 4.04 -2 2 C-1.34 2 -0.68 2 0 2 C0 1.34 0 0.68 0 0 Z " fill="#FDE3E2" transform="translate(270,196)"/>
<path d="M0 0 C3.44216672 2.6598561 3.99504674 5.90288286 5 10 C4.34 10 3.68 10 3 10 C3 9.01 3 8.02 3 7 C2.01 7 1.02 7 0 7 C0 4.69 0 2.38 0 0 Z " fill="#C24142" transform="translate(313,144)"/>
<path d="M0 0 C1.65 1.32 3.3 2.64 5 4 C4.25 8.75 4.25 8.75 2 11 C2.33 8.69 2.66 6.38 3 4 C2.01 4 1.02 4 0 4 C0 2.68 0 1.36 0 0 Z " fill="#FDE0DC" transform="translate(172,136)"/>
<path d="M0 0 C1.32 0 2.64 0 4 0 C2.55746343 3.36591866 0.66735273 5.51047079 -2 8 C-2.625 6.125 -2.625 6.125 -3 4 C-2.34 3.34 -1.68 2.68 -1 2 C-0.67 1.34 -0.34 0.68 0 0 Z " fill="#F7DBDF" transform="translate(164,114)"/>
<path d="M0 0 C1.32 0 2.64 0 4 0 C2.50902342 3.7952131 0.24299151 5.61042731 -3 8 C-2.45276317 4.62537285 -1.9451 2.91765 0 0 Z " fill="#F7DED9" transform="translate(292,100)"/>
<path d="M0 0 C0.99 0.33 1.98 0.66 3 1 C1.88200014 2.33920838 0.75538103 3.67122556 -0.375 5 C-1.00148437 5.7425 -1.62796875 6.485 -2.2734375 7.25 C-3.12808594 8.11625 -3.12808594 8.11625 -4 9 C-4.66 9 -5.32 9 -6 9 C-5.33333333 7.66666667 -4.66666667 6.33333333 -4 5 C-3.67 4.278125 -3.34 3.55625 -3 2.8125 C-2 1 -2 1 0 0 Z " fill="#A4A9CF" transform="translate(233,335)"/>
<path d="M0 0 C0.33 0.99 0.66 1.98 1 3 C0.01 3.33 -0.98 3.66 -2 4 C-1.67 4.99 -1.34 5.98 -1 7 C-1.99 7.66 -2.98 8.32 -4 9 C-4 8.34 -4 7.68 -4 7 C-4.66 6.67 -5.32 6.34 -6 6 C-4.02 4.02 -2.04 2.04 0 0 Z " fill="#ABAED4" transform="translate(280,290)"/>
<path d="M0 0 C0.99 0 1.98 0 3 0 C3 0.66 3 1.32 3 2 C3.66 2.33 4.32 2.66 5 3 C4.01 3.66 3.02 4.32 2 5 C2.33 5.66 2.66 6.32 3 7 C1.02 6.34 -0.96 5.68 -3 5 C-2.505 4.54625 -2.01 4.0925 -1.5 3.625 C0.22609337 2.12364481 0.22609337 2.12364481 0 0 Z " fill="#C53837" transform="translate(221,248)"/>
<path d="M0 0 C1.32 0 2.64 0 4 0 C4 1.65 4 3.3 4 5 C2.68 5.33 1.36 5.66 0 6 C0 4.02 0 2.04 0 0 Z " fill="#C73528" transform="translate(196,243)"/>
<path d="M0 0 C0.33 0.99 0.66 1.98 1 3 C0.01 3.99 -0.98 4.98 -2 6 C-2 2 -2 2 0 0 Z M-5 5 C-4.34 5.33 -3.68 5.66 -3 6 C-4.485 8.475 -4.485 8.475 -6 11 C-6.33 10.01 -6.66 9.02 -7 8 C-6.34 7.01 -5.68 6.02 -5 5 Z " fill="#F9F9F4" transform="translate(325,130)"/>
<path d="M0 0 C2.15377564 2.62198774 3.40072174 4.64404172 4 8 C3.01 8 2.02 8 1 8 C1 7.34 1 6.68 1 6 C0.34 5.67 -0.32 5.34 -1 5 C-0.67 3.35 -0.34 1.7 0 0 Z " fill="#585E64" transform="translate(197,360)"/>
<path d="M0 0 C0 0.66 0 1.32 0 2 C-1.98 2.33 -3.96 2.66 -6 3 C-6.33 2.01 -6.66 1.02 -7 0 C-3.86650268 -1.04449911 -3.01031744 -0.93423645 0 0 Z " fill="#3F403C" transform="translate(132,313)"/>
<path d="M0 0 C2.475 0.495 2.475 0.495 5 1 C3.515 4.465 3.515 4.465 2 8 C1.34 7.67 0.68 7.34 0 7 C0.33 6.01 0.66 5.02 1 4 C0.61067144 1.85744207 0.61067144 1.85744207 0 0 Z " fill="#9DA3CB" transform="translate(314,306)"/>
<path d="M0 0 C-1.26779557 2.53559113 -2.91062614 4.10056922 -5 6 C-5.66 6 -6.32 6 -7 6 C-7.33 4.68 -7.66 3.36 -8 2 C-5.09399739 0.74335022 -3.20395416 0 0 0 Z " fill="#666665" transform="translate(157,303)"/>
<path d="M0 0 C3.43595166 1.52708963 6.11912454 3.59927045 9 6 C8.67 6.66 8.34 7.32 8 8 C1.42857143 4 1.42857143 4 0 0 Z " fill="#FDDEDA" transform="translate(262,153)"/>
<path d="M0 0 C0.598125 0.226875 1.19625 0.45375 1.8125 0.6875 C1.1525 0.6875 0.4925 0.6875 -0.1875 0.6875 C-0.1875 1.3475 -0.1875 2.0075 -0.1875 2.6875 C-0.8475 2.6875 -1.5075 2.6875 -2.1875 2.6875 C-2.8475 4.0075 -3.5075 5.3275 -4.1875 6.6875 C-4.875 4.875 -4.875 4.875 -5.1875 2.6875 C-3.58493056 0.24147296 -2.95482043 -0.4221172 0 0 Z " fill="#8E94B4" transform="translate(282.1875,367.3125)"/>
<path d="M0 0 C0 3.58912412 -0.66436554 4.10857029 -3 6.6875 C-3.556875 7.31011719 -4.11375 7.93273437 -4.6875 8.57421875 C-5.120625 9.04472656 -5.55375 9.51523437 -6 10 C-6.99 9.34 -7.98 8.68 -9 8 C-8.43410156 7.50628906 -7.86820313 7.01257813 -7.28515625 6.50390625 C-6.55167969 5.86324219 -5.81820312 5.22257812 -5.0625 4.5625 C-4.33160156 3.92441406 -3.60070312 3.28632813 -2.84765625 2.62890625 C-1.87860647 1.77458541 -0.91348825 0.91348825 0 0 Z " fill="#FDDBD8" transform="translate(199,254)"/>
<path d="M0 0 C1.9375 0.8125 1.9375 0.8125 4 2 C4.33 2.99 4.66 3.98 5 5 C4.34 5 3.68 5 3 5 C3 5.66 3 6.32 3 7 C2.01 6.67 1.02 6.34 0 6 C0 4.02 0 2.04 0 0 Z " fill="#F2FDFA" transform="translate(170,212)"/>
<path d="M0 0 C3.53586014 3.17320782 5.58578031 5.16743695 6 10 C5.01 9.67 4.02 9.34 3 9 C3 7.35 3 5.7 3 4 C2.34 4 1.68 4 1 4 C0.67 2.68 0.34 1.36 0 0 Z " fill="#DD2F34" transform="translate(274,161)"/>
<path d="M0 0 C4.42857143 5.14285714 4.42857143 5.14285714 5 9 C1.57945994 7.85981998 0.7573799 7.07541482 -1 4 C-0.6875 1.75 -0.6875 1.75 0 0 Z " fill="#FBDBDA" transform="translate(271,161)"/>
<path d="M0 0 C2.5625 2.25 2.5625 2.25 5 5 C4.8125 7.3125 4.8125 7.3125 4 9 C4 8.01 4 7.02 4 6 C3.34 6 2.68 6 2 6 C2 6.66 2 7.32 2 8 C1.34 7.67 0.68 7.34 0 7 C0 4.69 0 2.38 0 0 Z " fill="#DBDDE9" transform="translate(262,344)"/>
<path d="M0 0 C5.78461538 4.43076923 5.78461538 4.43076923 6.875 7.3125 C6.936875 8.1478125 6.936875 8.1478125 7 9 C6.01 8.67 5.02 8.34 4 8 C3.67 7.01 3.34 6.02 3 5 C2.484375 4.484375 1.96875 3.96875 1.4375 3.4375 C0.963125 2.963125 0.48875 2.48875 0 2 C0 1.34 0 0.68 0 0 Z " fill="#E5E9F6" transform="translate(256,339)"/>
<path d="M0 0 C0.309375 0.639375 0.61875 1.27875 0.9375 1.9375 C1.8345163 3.93610821 1.8345163 3.93610821 3 5 C3.04080783 6.99958364 3.04254356 9.00045254 3 11 C1.10786631 8.61426621 -0.02391783 6.92824652 -1 4 C-0.5625 1.8125 -0.5625 1.8125 0 0 Z " fill="#9BA3C5" transform="translate(187,333)"/>
<path d="M0 0 C1.32 0.33 2.64 0.66 4 1 C3.67 2.65 3.34 4.3 3 6 C2.01 5.34 1.02 4.68 0 4 C0 2.68 0 1.36 0 0 Z " fill="#EEFFFE" transform="translate(329,232)"/>
<path d="M0 0 C4.455 0.99 4.455 0.99 9 2 C8.67 2.66 8.34 3.32 8 4 C4.625 4.125 4.625 4.125 1 4 C0.34 3.34 -0.32 2.68 -1 2 C-0.67 1.34 -0.34 0.68 0 0 Z " fill="#C33F40" transform="translate(231,210)"/>
<path d="M0 0 C0 0.99 0 1.98 0 3 C-1.65 3 -3.3 3 -5 3 C-5.33 2.01 -5.66 1.02 -6 0 C-3.50907189 -1.24546405 -2.58919267 -0.7767578 0 0 Z " fill="#C53528" transform="translate(190,103)"/>
<path d="M0 0 C0.99 0.33 1.98 0.66 3 1 C1.68 2.65 0.36 4.3 -1 6 C-2.32 5.67 -3.64 5.34 -5 5 C-4.01 4.67 -3.02 4.34 -2 4 C-0.79117904 1.99983534 -0.79117904 1.99983534 0 0 Z " fill="#A3A8CD" transform="translate(260,310)"/>
<path d="M0 0 C1.65 0 3.3 0 5 0 C5 1.32 5 2.64 5 4 C3.35 4.33 1.7 4.66 0 5 C0 3.33333333 0 1.66666667 0 0 Z " fill="#C82929" transform="translate(337,161)"/>
<path d="M0 0 C0.33 0.66 0.66 1.32 1 2 C1.99 2 2.98 2 4 2 C4 3.65 4 5.3 4 7 C3.01 7 2.02 7 1 7 C0.67 4.69 0.34 2.38 0 0 Z " fill="#DD292D" transform="translate(312,149)"/>
<path d="M0 0 C1.89213369 2.38573379 3.02391783 4.07175348 4 7 C2.68 6.67 1.36 6.34 0 6 C-1.125 2.25 -1.125 2.25 0 0 Z " fill="#595D69" transform="translate(193,352)"/>
<path d="M0 0 C1.32 0.33 2.64 0.66 4 1 C4 1.99 4 2.98 4 4 C2.02 4.99 2.02 4.99 0 6 C0.185625 5.38125 0.37125 4.7625 0.5625 4.125 C1.23686176 1.95839822 1.23686176 1.95839822 0 0 Z " fill="#3D3D39" transform="translate(107,319)"/>
<path d="M0 0 C2.31 1.98 4.62 3.96 7 6 C5.68 6.33 4.36 6.66 3 7 C0 2.25 0 2.25 0 0 Z " fill="#FEE0DB" transform="translate(175,253)"/>
<path d="M0 0 C0.66 0 1.32 0 2 0 C1.67 1.32 1.34 2.64 1 4 C0.01 4 -0.98 4 -2 4 C-2 4.66 -2 5.32 -2 6 C-2.66 6 -3.32 6 -4 6 C-2.84826645 3.53199953 -1.95216435 1.95216435 0 0 Z " fill="#B73732" transform="translate(176,221)"/>
<path d="M0 0 C1.32 0 2.64 0 4 0 C4.66 1.98 5.32 3.96 6 6 C5.01 6.33 4.02 6.66 3 7 C2.87625 6.360625 2.7525 5.72125 2.625 5.0625 C2.315625 4.0415625 2.315625 4.0415625 2 3 C1.34 2.67 0.68 2.34 0 2 C0 1.34 0 0.68 0 0 Z " fill="#DD3237" transform="translate(171,131)"/>
<path d="M0 0 C2.1875 0.3125 2.1875 0.3125 4 1 C2.35 2.32 0.7 3.64 -1 5 C-1.66 4.34 -2.32 3.68 -3 3 C-1.75 1.4375 -1.75 1.4375 0 0 Z " fill="#F9D7D0" transform="translate(171,108)"/>
</svg>
