<?xml version="1.0" standalone="no"?>
<!DOCTYPE svg PUBLIC "-//W3C//DTD SVG 20010904//EN"
 "http://www.w3.org/TR/2001/REC-SVG-20010904/DTD/svg10.dtd">
<svg version="1.0" xmlns="http://www.w3.org/2000/svg"
 width="300.000000pt" height="300.000000pt" viewBox="0 0 300.000000 300.000000"
 preserveAspectRatio="xMidYMid meet">
<metadata>
Created by potrace 1.10, written by Peter Selinger 2001-2011
</metadata>
<g transform="translate(0.000000,300.000000) scale(0.100000,-0.100000)"
fill="#000000" stroke="none">
<path d="M0 1500 l0 -1500 1500 0 1500 0 0 1500 0 1500 -1500 0 -1500 0 0
-1500z m1618 928 c2 -58 6 -78 17 -78 7 0 35 -9 61 -20 l48 -21 46 46 c25 25
52 45 61 45 16 0 159 -139 159 -156 0 -5 -22 -31 -49 -58 l-49 -48 27 -59 26
-59 68 0 c63 0 68 -2 77 -26 6 -14 10 -63 10 -109 0 -108 -9 -118 -97 -113
l-63 3 -11 -35 c-6 -19 -18 -46 -26 -59 -14 -22 -13 -26 36 -75 28 -28 51 -56
51 -62 0 -15 -144 -154 -160 -154 -8 0 -35 21 -61 46 l-47 46 -61 -24 -61 -23
0 -65 c0 -38 -5 -71 -12 -78 -16 -16 -200 -16 -216 0 -7 7 -12 40 -12 78 l0
65 -61 23 -61 24 -47 -46 c-26 -25 -54 -46 -62 -46 -16 0 -159 141 -159 156 0
5 23 32 51 60 49 49 50 53 36 75 -8 13 -20 40 -26 59 l-11 36 -63 -4 c-89 -6
-97 4 -97 119 0 123 4 129 91 129 58 0 71 3 75 18 3 9 14 36 24 58 l18 41 -49
49 c-27 26 -49 52 -49 57 0 16 143 157 159 157 8 0 36 -20 61 -45 l46 -45 51
21 c59 25 103 20 64 -7 -12 -9 -25 -14 -28 -11 -3 3 -28 -3 -57 -14 -28 -12
-48 -18 -44 -14 8 8 -24 43 -34 38 -5 -2 -8 1 -8 7 0 6 -5 8 -12 4 -6 -4 -8
-3 -5 3 4 6 -3 19 -15 29 -12 11 -18 13 -14 7 4 -8 1 -13 -9 -13 -9 0 -28 -9
-42 -20 -14 -11 -22 -20 -17 -20 4 0 -1 -7 -12 -16 -10 -8 -12 -12 -4 -8 9 4
12 3 7 -2 -5 -5 -14 -9 -20 -9 -6 0 -17 -11 -24 -25 -14 -28 -2 -51 26 -45 10
2 18 -3 18 -11 0 -17 -14 -18 -20 -1 -4 9 -6 9 -6 -1 -1 -7 10 -17 24 -24 13
-6 22 -15 19 -20 -3 -4 1 -11 10 -14 13 -5 12 -10 -5 -37 -10 -18 -19 -44 -19
-58 0 -15 -7 -30 -16 -33 -8 -3 -13 -9 -11 -13 3 -5 -17 -6 -44 -5 -28 2 -60
1 -73 -2 -23 -6 -24 -9 -23 -98 l2 -93 65 -5 c64 -5 65 -5 87 -47 37 -71 43
-105 22 -127 -10 -10 -16 -23 -12 -29 3 -6 1 -7 -4 -4 -6 4 -16 1 -22 -7 -7
-8 -8 -16 -4 -18 4 -3 3 -3 -4 -2 -32 8 -21 -23 26 -70 28 -29 48 -56 44 -61
-5 -4 -3 -5 4 -1 6 3 14 2 18 -4 10 -16 17 -12 58 25 20 18 37 32 37 29 0 -3
7 1 15 9 13 14 19 13 55 -4 22 -11 44 -18 48 -16 11 7 44 -7 43 -18 0 -6 6
-20 14 -31 8 -12 11 -24 8 -27 -3 -4 -6 -26 -7 -49 l-1 -43 90 2 c49 1 93 2
96 3 4 0 6 25 4 56 -2 50 1 60 24 84 14 15 31 25 36 23 6 -2 28 6 50 17 l39
20 55 -52 c29 -29 50 -47 46 -39 -6 11 -3 13 14 8 13 -3 21 -3 18 0 -3 3 19
28 49 55 48 46 68 78 46 78 -4 0 -15 12 -24 28 -10 15 -18 21 -18 12 0 -8 -9
3 -21 24 l-20 38 20 41 c11 22 17 45 14 51 -3 6 -3 8 2 4 5 -5 13 2 19 15 10
19 21 22 78 25 l66 3 -4 90 c-4 72 -2 89 8 83 10 -6 9 -3 -1 9 -10 13 -29 17
-78 17 -47 0 -65 4 -69 15 -4 8 -10 13 -14 10 -5 -3 -11 -1 -15 5 -3 5 -1 10
4 10 6 0 11 7 11 16 0 9 -5 12 -12 8 -7 -4 -10 -4 -6 0 3 4 0 22 -7 40 -12 29
-12 36 3 57 9 13 27 32 40 43 13 10 21 24 18 32 -3 7 0 16 5 20 6 3 -3 15 -21
25 -17 11 -28 24 -25 29 3 6 1 11 -4 11 -6 1 -16 2 -23 3 -6 0 -13 7 -16 15
-3 9 0 11 9 6 8 -5 11 -4 6 1 -9 9 -13 10 -43 13 -9 0 -12 6 -8 13 4 7 3 8 -4
4 -7 -4 -12 -13 -12 -20 0 -8 -8 -13 -17 -12 -10 0 -18 -6 -18 -14 0 -8 -12
-20 -26 -27 -22 -11 -34 -10 -67 1 -22 8 -43 12 -46 9 -3 -4 -6 -1 -6 5 0 7
-6 12 -14 12 -24 0 -35 25 -40 91 l-4 64 -86 3 c-75 3 -86 2 -86 -13 0 -9 -4
-14 -9 -11 -5 3 -9 0 -8 -7 2 -53 -5 -107 -13 -107 -11 0 -14 143 -3 154 4 3
57 5 117 4 l111 -3 3 -77z m-495 -93 c-3 -9 -8 -14 -10 -11 -3 3 -2 9 2 15 9
16 15 13 8 -4z m812 -133 c-3 -3 -11 0 -18 7 -9 10 -8 11 6 5 10 -3 15 -9 12
-12z m-372 -93 c26 -6 47 -15 47 -21 0 -5 4 -7 8 -4 5 3 14 -4 22 -14 8 -10
18 -16 24 -13 6 3 8 2 3 -2 -4 -5 3 -19 15 -32 25 -27 30 -47 30 -123 0 -81
-6 -129 -15 -123 -10 6 -43 -38 -39 -52 2 -5 0 -7 -4 -3 -4 5 -23 -4 -42 -19
-20 -15 -32 -21 -28 -15 5 8 2 10 -8 6 -9 -3 -14 -9 -12 -13 3 -4 -23 -6 -57
-4 -93 4 -106 6 -100 17 4 5 -3 7 -15 4 -13 -4 -20 -2 -16 4 7 12 -27 38 -40
31 -5 -4 -6 -1 -2 6 4 7 -2 15 -16 20 -13 4 -22 11 -20 15 6 15 1 37 -7 32 -5
-4 -7 4 -3 16 3 14 1 19 -6 14 -8 -5 -10 8 -6 46 4 29 7 71 7 92 1 22 3 34 5
28 2 -7 9 -12 14 -12 6 0 8 3 5 7 -4 3 12 27 35 52 57 62 129 82 221 60z m174
-271 c-3 -7 -5 -2 -5 12 0 14 2 19 5 13 2 -7 2 -19 0 -25z m320 -280 c-3 -8
-6 -5 -6 6 -1 11 2 17 5 13 3 -3 4 -12 1 -19z m-69 -393 c9 -4 114 -40 232
-80 118 -41 243 -83 277 -95 61 -21 63 -23 78 -72 18 -61 34 -177 43 -320 l7
-108 -527 0 -527 0 35 51 c38 57 38 59 20 179 -11 73 -11 88 2 108 14 21 11
26 -53 97 -37 41 -70 75 -75 75 -5 0 -39 -34 -76 -75 l-67 -76 21 -22 21 -22
-19 -90 c-11 -49 -19 -97 -20 -105 0 -9 16 -39 35 -69 19 -29 35 -53 35 -54 0
-1 -237 -1 -528 1 l-527 2 7 113 c8 133 24 242 44 313 l14 52 172 60 c95 32
226 77 292 98 l118 39 70 83 c38 45 72 82 76 82 4 0 80 -73 169 -162 l163
-163 167 167 166 166 69 -83 c38 -46 77 -86 86 -90z m-533 -265 c-3 -5 -12
-10 -18 -10 -7 0 -6 4 3 10 19 12 23 12 15 0z m60 -90 c-33 -4 -64 -3 -69 2
-6 4 21 7 60 7 l69 -2 -60 -7z"/>
<path d="M1436 2085 c-106 -37 -163 -162 -121 -263 69 -163 301 -163 370 0 43
104 -22 237 -132 267 -49 14 -69 13 -117 -4z"/>
<path d="M1133 1269 c-25 -39 -64 -80 -97 -101 -7 -5 27 -84 99 -228 95 -190
112 -218 122 -203 15 20 11 23 54 -52 l34 -60 6 35 c3 19 11 54 16 76 8 31 7
49 -3 74 -8 18 -14 38 -14 45 0 12 52 75 102 122 l28 26 -118 115 c-64 63
-136 132 -159 154 l-41 40 -29 -43z"/>
<path d="M1830 1300 c0 -7 -2 -11 -5 -8 -9 9 -245 -224 -261 -257 -8 -16 -12
-21 -9 -11 6 19 5 19 -14 2 -20 -18 -20 -19 39 -86 33 -37 71 -89 85 -116 18
-36 19 -43 5 -26 -10 12 -20 22 -22 22 -3 0 -6 -25 -7 -55 -1 -30 2 -55 6 -55
5 0 7 -18 5 -40 -2 -22 -2 -40 1 -40 3 0 20 26 38 58 41 72 37 69 52 49 10
-15 27 12 121 200 l108 218 -49 50 c-26 28 -58 63 -71 79 -12 16 -22 23 -22
16z"/>
<path d="M1971 1102 c-11 -22 -17 -42 -14 -46 4 -3 2 -6 -4 -6 -6 0 -20 -23
-32 -50 -12 -28 -29 -59 -38 -70 -9 -11 -18 -27 -19 -36 -4 -26 -75 -157 -92
-171 -10 -7 -24 -13 -34 -13 -9 0 -21 -12 -27 -27 -13 -33 -43 -86 -61 -108
-7 -8 -10 -15 -6 -15 4 0 -1 -11 -9 -24 l-16 -24 166 -1 c91 -1 171 -2 177 -4
7 -1 41 41 75 93 34 52 67 101 73 108 8 9 0 28 -35 76 -25 35 -45 66 -45 69 0
3 33 13 73 22 39 10 76 21 80 25 4 4 3 38 -3 76 -17 114 -17 114 -50 114 -16
0 -32 5 -35 11 -4 6 -13 8 -20 5 -8 -3 -15 -1 -17 4 -2 5 -12 11 -23 13 -11 1
-25 6 -32 10 -8 5 -19 -6 -32 -31z"/>
<path d="M976 1121 c-3 -5 -15 -7 -26 -4 -11 3 -20 1 -20 -5 0 -10 -60 -27
-76 -22 -13 3 -23 -24 -29 -84 -10 -83 -27 -119 -19 -41 3 33 7 70 9 81 3 21
1 21 -33 12 -21 -6 -49 -17 -64 -24 -15 -8 -30 -14 -33 -14 -21 1 -25 -1 -20
-9 3 -5 0 -13 -6 -17 -8 -4 -9 -3 -5 5 5 8 0 10 -17 7 -23 -4 -107 -30 -137
-43 -8 -3 -19 -7 -25 -7 -5 -1 -17 -23 -26 -51 -17 -49 -21 -85 -35 -280 -4
-55 -8 -102 -8 -105 -1 -2 132 -5 295 -5 l297 -1 -11 23 c-5 13 -12 21 -15 18
-4 -4 -35 46 -58 95 -4 8 -16 27 -26 42 -18 26 -18 29 -1 60 9 18 16 37 15 41
-1 5 1 6 6 3 5 -3 16 8 25 23 17 29 17 29 -11 36 -15 4 -37 9 -49 11 -32 6
-76 24 -72 29 3 2 45 -6 94 -19 49 -12 84 -25 78 -29 -6 -4 -30 -34 -52 -67
-31 -45 -39 -64 -31 -73 6 -6 39 -55 74 -107 39 -60 67 -94 76 -91 8 1 88 2
178 2 l162 -2 -17 35 c-9 19 -19 33 -23 31 -4 -2 -7 1 -8 8 -3 35 -15 58 -61
113 -6 7 -7 15 -3 19 4 4 -3 3 -15 -4 -20 -10 -23 -9 -29 14 -3 14 -9 23 -13
21 -10 -7 -28 26 -25 47 1 9 -2 17 -7 17 -5 0 -9 9 -9 21 0 11 -4 17 -10 14
-5 -3 -10 3 -10 13 0 11 -7 25 -15 32 -8 7 -15 23 -15 37 0 14 -4 21 -10 18
-5 -3 -10 3 -10 14 0 11 -5 23 -10 26 -6 4 -8 11 -5 16 4 5 2 9 -2 9 -8 0 -49
84 -42 86 2 0 -4 8 -13 17 -18 19 -44 22 -52 8z"/>
<path d="M2186 1062 c-2 -4 0 -41 6 -80 6 -39 8 -78 5 -86 -5 -12 -54 -29
-122 -41 -11 -2 -21 -4 -23 -4 -2 -1 5 -14 14 -30 10 -17 22 -27 28 -24 6 3 8
3 4 -2 -4 -4 1 -20 12 -35 11 -16 20 -31 20 -34 0 -3 -20 -38 -45 -76 -25 -39
-42 -76 -39 -82 4 -7 3 -8 -4 -4 -6 4 -17 -5 -26 -21 l-14 -28 290 0 c282 0
291 1 298 20 6 18 4 60 -14 240 -6 54 -30 164 -38 169 -8 6 -115 47 -133 51
-42 9 -174 56 -207 73 -3 2 -9 -1 -12 -6z"/>
</g>
</svg>
